<svg width="21" height="12" viewBox="0 0 21 12" fill="none" xmlns="http://www.w3.org/2000/svg">
<path d="M14.9378 0C13.3984 0 8.47757 0 6.93802 0C3.62386 0 0.9375 2.68636 0.9375 5.99978C0.9375 9.31425 3.62386 12 6.93802 12C8.47757 12 13.3984 12 14.9378 12C18.2512 12 20.9375 9.31425 20.9375 5.99978C20.9375 2.68625 18.2512 0 14.9378 0Z" fill="white"/>
<path d="M16.3363 5.63688L18.9965 8.80044C19.5475 8.00447 19.871 7.03906 19.871 5.99968C19.871 4.9024 19.5105 3.88757 18.9023 3.06736L16.3363 5.63688Z" fill="#E2231A"/>
<path d="M8.79813 2.80029C10.7847 2.80029 12.2815 3.30574 12.4355 4.97949L14.5263 2.79997H18.6894C17.7838 1.73995 16.438 1.06664 14.9378 1.06664H6.93801C5.4373 1.06664 4.09132 1.73995 3.1856 2.80018C4.51074 2.80029 7.58857 2.80029 8.79813 2.80029Z" fill="#E2231A"/>
<path d="M5.52502 4.9103L4.81562 6.86091C4.81562 6.86091 6.91577 6.86091 7.67787 6.86091C8.5239 6.86091 8.77991 6.5105 8.96935 5.83613C9.15678 5.16917 8.68593 4.9103 8.10766 4.9103C7.62231 4.9103 5.52502 4.9103 5.52502 4.9103Z" fill="#E2231A"/>
<path d="M14.5436 9.06692L12.3326 6.2725C11.9236 8.17771 10.5851 9.06649 8.07624 9.06649C6.19304 9.06649 3.99204 9.06649 3.07616 9.06649C3.98071 10.2031 5.37559 10.9333 6.938 10.9333H14.9378C16.4998 10.9333 17.8943 10.2035 18.7988 9.06692H14.5436Z" fill="#E2231A"/>
</svg>
