<?xml version="1.0" encoding="UTF-8"?>
<svg id="Layer_1" data-name="Layer 1" xmlns="http://www.w3.org/2000/svg" viewBox="0 0 64.16 38.67">
  <defs>
    <style>
      .cls-1 {
        stroke-width: 0px;
      }
    </style>
  </defs>
  <path class="cls-1" d="m42.97,15.72c.1,4.65.27,9.34.28,14.02,0,1.99-.16,3.99-1.1,5.85-.76,1.51-1.89,2.13-3.57,2.2-3.63.16-7.26.44-10.89.71-3.6.26-7.19.23-10.78-.25-1.66-.22-2.65-1.05-2.99-2.71-1.16-5.62-1.53-11.24-.07-16.86.08-.29.13-.59.19-.89-.08-.07-.16-.13-.23-.2-1.11,1.32-2.26,2.6-3.3,3.97-.53.69-.86,1.54-1.25,2.33-.71,1.43-.63,2.94-.39,4.47.2,1.31-.11,1.59-1.44,1.66-1.39.07-2.77.29-4.15.36-1.45.07-1.65-.14-2.14-1.61C-1.42,21.06.39,14.41,5.92,8.6c2.59-2.72,5.55-4.94,8.99-6.4,1.4-.6,3.03-.67,4.57-.95.63-.12,1.28-.14,1.92-.22.68-.09,1.2.02,1.67.65.97,1.29,4.3,2.11,5.74,1.39.52-.26,1.03-.83,1.23-1.37C30.51.41,30.78.02,32.07,0c7.39-.08,14.06,1.6,18.84,7.83,1.52,1.98,3.23,3.77,5.66,4.68,1.91.72,3.8.99,5.73.12.95-.43,1.28-.27,1.51.73.14.62.39,1.26.34,1.87-.35,3.82-1.66,4.96-6.19,5.59-2.77.39-5.52.19-8.21-.42-1.14-.26-2.25-.94-3.22-1.64-1.29-.92-2.43-2.05-3.58-3.04Zm16.81-1.05c-1.47-.43-2.87-.76-4.21-1.25-2.58-.94-4.18-3.06-5.89-5.05-3.78-4.4-8.38-7.07-14.38-6.81-1.33.06-1.6.28-1.93,1.59-.42,1.7-1.37,2.99-3.15,3.39-1.08.25-2.22.44-3.31.38-2.93-.16-5.42-1.2-6.85-4.01-.09-.18-.35-.42-.49-.39-1.65.34-3.4.49-4.92,1.14-3.46,1.49-6.27,3.93-8.68,6.79C2.08,15.07.17,20.22,1.8,26.15h5.53c.86-4.51,3.52-7.68,6.91-10.35.22-.18.69-.29.9-.17.23.12.42.56.39.84-.08.84-.27,1.67-.43,2.5-.29,1.55-.6,3.1-.92,4.79h1.84c-.24-.64-.5-1.2-.65-1.78-.08-.32,0-.68,0-1.03.33.02.65.05,1.02.07.06-.16.08-.43.22-.6.19-.23.46-.39.7-.58.13.28.36.55.37.83.02.32-.14.66-.24.98-.48,1.52-.12,2.68,1.15,3.75.35-.45.7-.9.88-1.12-.15-1.05-.48-1.91-.33-2.68.22-1.11.76-2.16,1.25-3.2.14-.29.57-.45.89-.63.23-.13.5-.18.49-.18.43-1.21.66-2.29,1.17-3.21,2.34-4.26,8.47-4.13,11.42-1.25,1.9,1.86,2.75,4.47.56,6.77-.08.09-.12.22-.22.4.41.05.74.08,1.06.15,1.27.27,2.03,1.33,1.72,2.55-.15.61-.53,1.15-.78,1.74-.13.29-.33.65-.26.92.25.9.6,1.78.95,2.76.87-.93,1.51-1.74,1.32-2.97-.07-.49.03-1.03.17-1.51.06-.21.42-.34.64-.51.16.22.41.43.45.67.06.35-.04.72-.06.98.45.1.81.18,1.17.26-.26.52-.52,1.04-.7,1.41.36.39.71.79,1.07,1.19-.49.06-.99.22-1.47.17-.78-.09-2.17,1.28-1.99,2.05.46,2.04.92,4.08,1.4,6.24.55.11.95-.35,1.32-.92,1.04-1.58,1.14-3.39,1.24-5.19.32-5.41-.14-10.8-.62-16.18-.04-.41.23-.84.36-1.26.4.22.86.38,1.2.68,1.83,1.65,3.62,3.37,5.47,5,.38.34.97.52,1.49.63,3.06.63,6.13.78,9.22.2.25-.05.65-.36.65-.57.06-1.45.03-2.91.03-4.13Zm-41.12,13.32c-.25.36-.48.61-.61.91-.85,1.96-1.74,3.9-2.49,5.89-.54,1.43-.18,1.93,1.39,2.16,1.27.19,2.57.4,3.85.38,3.8-.08,7.6-.27,11.4-.43.9-.04,1.79-.11,2.77-.16-.54-.68-1-1.25-1.46-1.82-.29.69-.81.41-1.3.23-.59.29-1.2.48-1.83.52-.27.02-.56-.28-.74-.37-.18.28-.34.58-.57.82-.05.05-.51-.14-.55-.28-.26-.98-.58-1.96-.65-2.96-.11-1.54-.03-3.1-.03-4.63-2.88-.29-5.42-1.11-7.53-3.17-.38.57-.71,1.07-1.02,1.53.38.66.76,1.22,1.03,1.84.11.24-.05.59-.08.9-.32-.1-.7-.13-.93-.33-.26-.22-.39-.6-.64-1.01Zm5.76-7.93c-.01.11-.02.22-.03.34.27.19.53.41.82.58,3.11,1.85,4.92,1.98,7.82.07.18-.12.48-.39.45-.46-.38-.85.34-1.23.71-1.75.53-.73,1.01-1.47.72-2.43-.38-1.24-1.08-2.23-2.19-2.96-1.67-1.09-3.49-1.25-5.38-.93-2.16.37-4.16,2.83-3.9,4.81.22.01.45.06.68.03.54-.06,1.07-.15,1.6-.23-.11-1.22.32-2.15,1.03-2.14,1.05.03,1.34.75,1.27,1.69.98-.3,1.8.02,2.17.77.24.49-.04,1.24-.09,1.91.4-.13,1.02-.39,1.67-.53.36-.07.77.08,1.16.13-.23.32-.38.78-.69.93-1.89.92-3.86.84-5.86.35-.63-.15-1.29-.12-1.94-.18Zm4.15,6.94c.44-.05,1.08,0,1.64-.21,1.51-.55,3.02-1.13,4.45-1.85.56-.28,1.03-.9,1.35-1.47.21-.37.29-1.13.07-1.37-.31-.32-.97-.41-1.47-.38-.4.03-.8.34-1.16.59-1.62,1.12-3.38,1.5-5.32,1.2-2.21-.34-3.95-1.61-5.64-2.9-.72-.55-1.18-.36-1.66.13-.57.58-.77,1.36-.37,2.07.42.75.93,1.53,1.58,2.07,1.83,1.51,4.06,1.97,6.54,2.13Zm4.98.06c.09.38.17.67.22.97.31,1.97.59,3.94.91,5.91.1.62.22,1.18,1.15.97,1.6-.37,2.05-.63,1.78-1.61-.66-2.4-1.44-4.77-2.2-7.24-.72.38-1.25.66-1.86.99Zm-1.09.57c-1.09.22-1.93.34-2.75.56-.25.07-.61.37-.62.58-.05,1.48-.03,2.96-.03,4.63,1.1-.15,2.1-.28,3.09-.41.67-.09.97-.5.9-1.12-.17-1.4-.39-2.8-.6-4.23Zm-17.85,5.26c1.11-2.07,2.07-3.81,2.98-5.58.14-.26.11-.71-.01-.99-.65-1.5-2.04-1.23-3.51-1.36.18,2.62.36,5.16.55,7.93Zm14.28-14.57c-.02-.17-.03-.34-.05-.51-2.23.34-4.45.67-6.68,1.01.01.11.03.21.04.32l6.69-.82ZM4.01,27.22c.03,1.85.51,2.17,1.59,1.49-.4-.61-.02-1.94-1.59-1.49ZM26.58,5.62c.05-.45.08-.79.12-1.13-1.5-.36-1.55-.33-1.81.88.52.08,1.03.15,1.69.25Zm1.33.1c.53-.09,1.01-.17,1.57-.27-.06-.42-.11-.75-.18-1.18-.74.29-1.76.01-1.39,1.46ZM6.29,27.36c.45.55.16,1.54,1.28,1.35.06-.84-.02-1.49-1.28-1.35ZM30.27,3.24c.17.76.26,1.2.41,1.86.43-.47.72-.79,1.12-1.22-.51-.21-.89-.37-1.52-.64Zm2.11-1.9c-.1-.07-.2-.14-.3-.21-.26.28-.62.53-.73.87-.05.16.38.48.77.93.13-.77.19-1.18.26-1.59Zm30.13,16.19c-1.45-.16-1.68.05-1.35,1.13.49-.41.92-.77,1.35-1.13Z"/>
  <path class="cls-1" d="m23.4,28.7c.31.46.79.89.88,1.39.11.59-.27,1.13-1,1.13-.72,0-1.09-.46-1-1.12.07-.48.4-.92.61-1.38l.5-.02Z"/>
  <path class="cls-1" d="m20.5,33.75c.51-.47.81-.94,1.19-1.01.23-.04.86.62.81.82-.12.43-.54.81-.92,1.09-.08.05-.56-.46-1.07-.89Z"/>
  <path class="cls-1" d="m32.43,16.52c0,.53-.33.92-1.05.89-.7-.03-1.27-.24-1.3-1.09-.02-.77.49-1.38,1.17-1.37.66,0,1.15.59,1.18,1.57Z"/>
</svg>