<?xml version="1.0" encoding="UTF-8"?>
<svg id="Layer_1" data-name="Layer 1" xmlns="http://www.w3.org/2000/svg" viewBox="0 0 139.77 659.71">
  <defs>
    <style>
      .cls-1 {
        fill: #3b3a3a;
      }

      .cls-1, .cls-2, .cls-3, .cls-4, .cls-5, .cls-6, .cls-7, .cls-8, .cls-9, .cls-10 {
        stroke-width: 0px;
      }

      .cls-2 {
        fill: #e1eadf;
      }

      .cls-3 {
        fill: #f1f0f1;
      }

      .cls-4 {
        fill: #fef3f7;
      }

      .cls-5 {
        fill: #fff;
      }

      .cls-6 {
        fill: #eceeee;
      }

      .cls-7 {
        fill: #fbfafa;
      }

      .cls-8 {
        fill: #00817d;
      }

      .cls-9 {
        fill: #007f7c;
      }

      .cls-10 {
        fill: #007c79;
      }
    </style>
  </defs>
  <path class="cls-5" d="m74.42,27.88c.04.09.08.19.12.28.31.62.79,1.18.5,1.98-.39,1.08-.94,1.4-2.07,1.21-.95-.16-1.86-.74-2.88-.35-.07.01-.14,0-.21-.03.25-1.14,1.73-1.77,2.83-1.09.49.31.86.39,1.27.04.48-.42.02-.74-.14-1.13-.25-.61-1.05-1.26-.07-1.94.56.13.46.67.64,1.02Z"/>
  <path class="cls-5" d="m66.98,20.82c-.48-.84-.19-1.16.72-1.07,1.39.13,2.73.62,4.15.61.76,0,1.23,1.05.93,1.84-.77-.09-1.29-.76-2.06-.85h.02c-.48-.35-1.03-.43-1.61-.32h.02c-.72-.14-1.48.14-2.17-.21Z"/>
  <path class="cls-7" d="m65.53,36.14c-.24.7-.88,1.09-1.28,1.67-1.1,1.58-1.09,2.42.17,3.89-1.31,1.84-2.88,3.4-4.71,4.73.18-1.32,1.24-1.86,2.2-2.5.23-.16.47-.33.7-.49-.01-.39.23-.66.46-.92.41-.47.5-.9.11-1.46-.32-.45-.5-.99-.05-1.51.17-.45.34-.9.51-1.35-.1-.55.23-.81.67-1,.31-.46.68-.87,1.22-1.06Z"/>
  <path class="cls-7" d="m83,22.85c.79.15,1.33.68,1.87,1.21.19.16.38.32.58.49.24.14.18.41.27.61.54.54.97,1.15,1.33,1.82.36.51.84.99.36,1.68-.97,2.46-1.6,2.89-3.97,2.76.35-.31.81-.29,1.23-.36,2.2-.39,3.05-2.33,1.84-4.25-.95-1.51-2.12-2.83-3.5-3.95Z"/>
  <path class="cls-5" d="m63.12,39.54c0,.62-.07,1.26.53,1.71.47.35.17.7-.07,1.01-.31.41-.65.78-.97,1.17-.37-.64-.31-1.23.1-1.84.16-.24.4-.7-.22-.75-.26-.02-.59.14-.69-.21-.12-.38.24-.56.48-.73.25-.17.56-.24.85-.36Z"/>
  <path class="cls-5" d="m61.91,43.93c-.61.94-1.65,1.5-2.2,2.5,0,0-.01,0-.01,0-.19-.02-.38.24-.57,0h0c.24-.69.44-1.39.79-2.05.64-1.23.8-1.3,1.99-.44Z"/>
  <path class="cls-5" d="m86.17,37.41h-.09s-.04-.09-.04-.09c-.4-.7-1.31-.79-1.73-1.45.74-.5,1.58-.08,2.37-.21.35-.06.49.54.39.94-.08.34-.24.66-.36.98-.22.08-.38-.03-.53-.17Z"/>
  <path class="cls-5" d="m63.53,22.33c-.27-.1-.66.18-.81-.25-.15-.43.12-.74.32-1.07.35-.59.51.09.66.16.6.3,1.2-.47,1.75.07.11.29-.22.32-.3.49h.02c-.62-.02-1,.63-1.63.59Z"/>
  <path class="cls-7" d="m84.3,35.87c.69.35,1.46.61,1.73,1.45-1.19-.66-2.39-1.32-3.58-1.99-.24-.14-.65-.19-.52-.64.83-.18,1.28.33,1.7.91.22.09.44.18.66.27Z"/>
  <path class="cls-5" d="m83.64,35.6c-.57-.3-1.13-.61-1.7-.91-.18-.31-.07-.53.24-.68.58.44,1.95.16,1.46,1.59Z"/>
  <path class="cls-5" d="m87.41,28.65c-.12-.56-.24-1.12-.36-1.68.27.15.58.26.81.45.31.26.86.46.6,1-.21.43-.67.3-1.05.23Z"/>
  <path class="cls-5" d="m69.07,31.16c-.2.43-.39.85-.59,1.28-.3.19-.28.74-.78.71-.44-.88.03-1.56,1.37-1.99Z"/>
  <path class="cls-7" d="m67.7,33.16c.26-.24.52-.48.78-.71-.51,1.19-1.37,2.14-2.18,3.13-.17.21-.38.25-.62.19.67-.87,1.35-1.74,2.02-2.61Z"/>
  <path class="cls-7" d="m65.15,21.73l.3-.49,1.54-.43c.72.08,1.47-.1,2.17.2-1.37.06-2.69.36-4.01.71Z"/>
  <path class="cls-7" d="m63.53,22.33c.48-.37.93-.82,1.63-.6-1.07.55-1.87,1.37-2.45,2.41-.26-.38-.09-.68.16-.97.35-.18.54-.48.65-.84Z"/>
  <path class="cls-7" d="m86.17,37.41c.18.06.35.12.53.17,1.01.88,1.02,1.95.55,3.09.05-1.23-.09-2.39-1.08-3.27Z"/>
  <path class="cls-5" d="m86.97,45.37c.07-.4.14-.79.22-1.19.32.11.65.22,1.05.35-.3.5-.71.77-1.27.84Z"/>
  <path class="cls-5" d="m74.96,23.22c-.11.31-.22.61-.34.92,0,0,0-.01,0-.01-.22.02-.22.29-.42.33-.62-.94.08-1.08.75-1.24Z"/>
  <path class="cls-5" d="m64.31,37.19c-.22.33-.45.67-.67,1-.47-.8-.2-1.1.67-1Z"/>
  <path class="cls-7" d="m74.42,27.88c-.21-.34-.43-.68-.64-1.02.08-.21.17-.42.25-.63.24.53.43,1.06.39,1.66Z"/>
  <path class="cls-5" d="m74.18,25.22c-.09.22-.19.44-.28.66-.55-.41-.32-.71.14-.97.11.07.09.21.14.31Z"/>
  <path class="cls-7" d="m74.18,25.22c-.05-.1-.1-.21-.14-.31.06-.15.12-.3.17-.44.08-.18.19-.33.42-.33-.15.36-.3.73-.45,1.09Z"/>
  <path class="cls-5" d="m73.82,23.12c-.21-.12-.33-.31-.38-.55.69-.2.35.3.38.55Z"/>
  <path class="cls-4" d="m81.58,41.97c1.76.93,1.88,1.2,1.46,3.13-.12.53-.21,1.07-.31,1.61-2.66-1.04-2.32-.39-1.69-3.32.11-.49.35-.95.53-1.43Z"/>
  <path class="cls-7" d="m70.09,30.99c.96-.81,1.85.15,2.78.15.5,0,.99.5,1.43-.17.42-.63.85-1.22.47-2.04-.11-.24-.16-.52-.24-.78.83.75,1.06,1.6.46,2.61-.45.74-.99,1.17-1.93.8-.95-.37-1.95-.56-2.97-.57Z"/>
  <path class="cls-1" d="m114.25,486.83c-2.32,13.74,1.96,30.56-9.96,40.82-5.09,4.38-11.72,6.65-18.17,8.09-8.27,1.84-16.84,2.6-25.3,2.66-4.53.03-9.41.2-13.82-.98-3.81-1.02-7.66-3.93-7.37-8.28.11-1.61-2.39-1.6-2.5,0-.25,3.65,1.97,6.92,4.94,8.86,3.41,2.23,7.69,2.58,11.66,2.76,9.48.44,19-.15,28.36-1.71,7.13-1.19,14.4-3.11,20.53-7.07s10.44-10.21,11.96-17.58c1.83-8.86.58-18.01,2.08-26.91.27-1.57-2.14-2.25-2.41-.66h0Z"/>
  <path class="cls-1" d="m82.94,308.97c3.97,3.78,9.13,5.98,13.13,9.7,2.1,1.95,3.66,4.32,4.33,7.13.75,3.15.42,6.49-.28,9.61-1.63,7.23-5.14,14.01-8.86,20.36-1.9,3.23-3.91,6.39-5.93,9.54-1.66,2.58-3.33,4.88-3.8,7.98-.33,2.22-.4,4.63.07,6.84.16.76.52,1.58,1.43,1.58,1.06,0,1.33-1.01,1.34-1.86.02-1.61-2.48-1.61-2.5,0,0,.8-.08-.2.53-.47h1.26c1.2.53.42.86.43.44,0-.1-.06-.26-.08-.36-.05-.24-.08-.48-.11-.72-.12-1.01-.14-2.04-.1-3.05.09-2.58.77-4.6,2.16-6.75,3.79-5.89,7.64-11.77,10.83-18.02,5.08-9.94,10.9-24.29,1.53-33.57-4.05-4.01-9.48-6.23-13.6-10.15-1.16-1.11-2.93.65-1.77,1.77h0Z"/>
  <path class="cls-10" d="m85.44,58.75c-.04,4.19.88,8.2,2.9,11.83.88,1.58,2.53,2.77,3.95,4,2.45,2.12,4.27,4.74,6.04,7.39,6.98,10.44,9.2,21.87,7.52,34.27-.5,3.71-1.21,7.3-2.78,10.63-4.54,9.62-10.83,17.85-20.23,23.18-4.24,2.4-8.74,4.45-13.59,5.49-13.32,2.87-25.99,1.22-37.82-5.7-8.74-5.11-15.31-12.22-19.86-21.35-4.92-9.87-5.83-20.09-3.87-30.79.31-1.72.38-3.48,1.03-5.12,4.28-10.74,10.59-19.95,20.68-26.01,3.98-2.39,8.25-4.4,12.81-5.58,3.21-.83,6.47-1.41,9.78-1.59,1.56-.09,2.85-.47,4-1.55,2.28-2.12,4.89-3.88,6.83-6.36,2.37,1.31,4.96,1.92,7.55,2.63,5.06,1.38,10.04,3.08,15.06,4.64Zm-21.43,54.39c.64-1.52,1.16-2.91,1.33-4.38.49-4.41.25-8.82-.71-13.11-.98-4.39-3.57-7.99-7.36-10.35-8.1-5.05-17.69-1.97-22.92,4.69-3.33,4.24-3.79,9.55-4.62,14.69-.76,4.71,1.31,7.87,4.93,10.39,1.49,1.04,1.95,2.43,1.34,4.22-.38,1.14-.85,2.25-1.16,3.4-.68,2.49.19,4.52,2.41,5.8.64.37,1.29.75,1.97,1.03,1.38.56,2.25,1.49,2.49,3,.1.61.31,1.23.58,1.79,1.05,2.16,2.86,3.37,5.17,3.8.96.18,1.78-.27,1.83-1.32.05-1.1-.75-.96-1.57-.91-1.47.08-3.31-1.24-3.63-2.89-.58-3.01-2.29-4.77-5.08-5.91-2.42-.99-2.9-2.53-2.02-5,.5-1.4,1.17-2.74,1.18-4.27,0-.85.47-.91,1.12-.71,2.14.66,4.31,1.1,6.55,1.21.54.03.87.15.73.81-.44,2.17.73,3.48,2.5,4.36,1.94.96,2.99,2.37,2.78,4.6-.04.39.1.79.1,1.19,0,1.97,1.09,3.11,2.9,3.5,1.38.29,2.18.97,2.67,2.3.53,1.43,1.49,2.58,3.11,2.91.63.13,1.17-.1,1.41-.69.24-.6-.15-1.03-.66-1.2-1.24-.39-1.76-1.37-2.18-2.46-.51-1.32-1.36-2.29-2.8-2.49-1.9-.27-2.58-1.36-2.49-3.19.13-2.84-.96-4.99-3.7-6.14-.31-.13-.62-.3-.91-.48-.7-.45-1-1.12-.82-1.91.18-.77.62-1.26,1.51-1.39,2.14-.32,4.27-.69,6.39-1.15,1.08-.24,1.15.08,1.18,1.07.07,2.33,1.02,4.3,3.42,4.99,2.93.85,4.55,2.31,4.56,5.69,0,2.75,2.04,4.24,4.63,4.28.81.01,1.76.03,1.83-1.05.07-1.08-.84-1.01-1.59-1.02-1.77-.02-2.74-.96-2.97-2.68-.11-.79-.17-1.59-.19-2.39-.04-1.67-.78-2.82-2.37-3.4-1.18-.43-2.38-.83-3.51-1.36-1.31-.62-1.93-1.79-1.81-3.22.12-1.42.85-2.62,2.28-2.83,1.18-.17,2.43.2,3.66.27,2.27.13,3.72,1.31,4.44,3.41.3.86.5,1.76.74,2.64.69,2.51,2.32,4.02,4.88,4.45,1.41.24,2.83.36,4.16.93.64.28,1.32.16,1.58-.55.24-.63-.22-1.04-.76-1.35-1.27-.74-2.69-.9-4.11-1.06-2.22-.25-3.29-1.14-3.86-3.25-1.51-5.59-2.8-6.71-8.59-7.29Zm15.91-29.18c-1.85-.55-4.9-.66-7.08-.16-4.04.93-5.54,3.26-4.85,7.3.49,2.87,2.05,4.56,4.89,5.25,2.02.49,3.98.42,5.89-.24,1-.34,1.45-.09,1.8.84.3.79.67,1.59,1.19,2.26.84,1.09,2.01,1.17,3.24.68,1.17-.46,1.3-1.7.99-2.43-.58-1.35.13-1.28,1.01-1.53,1.82-.52,3.02-2.42,2.71-4.05-.27-1.4-1.52-2.1-3.74-1.77-1.2.18-1.54-.18-1.79-1.27-.49-2.2-1.46-4.1-4.26-4.87Z"/>
  <path class="cls-10" d="m78.71,561.64c.39,2.9.9,5.77,1.62,8.62.88,3.49,3.54,5.52,5.86,7.79,3.6,3.54,6.25,7.7,8.42,12.18,8.19,16.93,6.35,33.18-3.66,48.71-3.37,5.23-7.8,9.6-13.12,12.84-11.95,7.28-24.81,9.71-38.57,6.6-9.72-2.19-18.02-6.87-25.09-13.91-3.45-3.43-6.07-7.35-8.48-11.51-4.95-8.58-6.08-17.83-5.57-27.55.32-6.12,1.88-11.83,4.85-17.03,4.71-8.26,10.75-15.45,19.3-20.01,6.84-3.65,14.11-6.12,21.98-6.26,1.08-.02,1.92-.41,2.79-1.06,2.69-2.02,5-4.44,7.38-6.78,2.39,1.54,5.14,2.02,7.81,2.79,4.86,1.41,9.66,3.03,14.49,4.57Zm-24.72,68.4c.24.42.39.59.44.78.34,1.4,1.06,2.45,2.6,2.57,1.49.11,1.99-1.11,2.58-2.15.82-1.44,1.57-2.92,2.44-4.32.44-.71,1-1.37,2.06-1.25,4.86.57,9.29-.47,13.1-3.68,1.02-.86,2.13-.9,3.37-.72,2.14.31,4.3.57,6.46.75,2.49.21,3.31-.45,3.71-2.93.24-1.46.34-2.95.48-4.42.44-4.58-.41-5.45-3.89-6.3-1.13-.28-1.44-.9-1.28-1.99.22-1.49.08-2.96-.46-4.38-.45-1.19-1.26-1.79-2.53-1.36-.67.22-1.07.14-1.65-.33-1.83-1.49-4.47-.87-5.43,1.27-.38.84-.71.89-1.53.63-3.41-1.09-6.65-2.79-10.33-2.98-.44-.02-.88-.24-1.3-.41-1.24-.5-1.55-1.28-.63-2.36.59-.7,1.25-1.33,1.82-2.05,1.53-1.94,1.25-3.39-1.06-4.26-3.9-1.47-7.85-2.82-12.06-3.13-1.56-.11-2.27.66-1.89,2.18.22.88.63,1.71.96,2.56.36.95.29,1.3-.95,1.1-4.05-.65-8.12-1.23-12.19-1.69-3.96-.45-7.85.04-11.57,1.49-1.43.56-1.6-.67-2.2-1.29-.63-.66-.81-1.3.08-2,1.07-.84,1.73-1.97,1.76-3.38.03-1.91-1.42-2.85-3.09-1.97-1.46.76-2.44,1.89-2.39,3.65.02.75.05,1.44-1,1.31-.94-.11-1.92-.19-1.67-1.57.13-.71.21-1.48-.74-1.61-1.04-.14-1.37.67-1.52,1.49-.42,2.22.97,4,3.59,3.86,2-.11,3.02.62,3.83,2.18.05.1.13.2.22.26,1.01.71.97,1.51.53,2.63-2.02,5.17-2.5,10.46-.32,15.67.69,1.66.71,3-.01,4.51-1.09,2.31-.85,4.76-.67,7.18.07.86.42,1.71,1.4,1.96.95.24,1.47-.46,1.98-1.08.69-.85,1.35-1.73,2.25-2.88.04,1.64.03,2.89.1,4.12.06,1.09.14,2.28,1.49,2.59,1.3.3,1.98-.66,2.58-1.58.99-1.5,2.01-3,2.87-4.58.62-1.14,1.22-1.53,2.56-1.08,3.3,1.12,6.63,2.13,9.99,3.03,1.54.41,2.06,1.22,1.87,2.7-.18,1.37-.28,2.74.31,4.04.43.95.9,1.94,2.1,2.03,1.07.08,1.57-.79,2.06-1.57.21-.33.43-.66.81-1.24Z"/>
  <path class="cls-10" d="m37,238.03c3.85,3.68,7.87,6.69,13.69,6.59,9.62-.17,18.58,2.27,26.82,7.45,14.97,9.41,22.17,23.18,22.63,40.52.18,7.08-1.41,14.07-4.54,20.52-5.4,11.11-13.62,19.51-24.89,24.68-9.58,4.4-19.58,5.74-30.07,4-6.56-1.09-12.48-3.52-18.02-7.05C7.23,324.92.22,310.55.49,292.64c.1-6.28,1.45-12.61,4.38-18.32,2.5-4.86,5.08-9.71,9.21-13.48.71-.64,1.03-1.42,1.17-2.38.5-3.35.67-6.7.33-10.07,2.69-.75,5.09-2.09,7.54-3.41,4.55-2.46,9.24-4.64,13.87-6.94Zm-16.24,59.4c.75,2.07,1.85,3.94,4.69,3.6.57-.07.71.46.96.84,2.75,4.27,5.41,8.6,8.28,12.79,2.8,4.08,5.64,8.16,9.3,11.56,1.98,1.84,4.2,2.56,6.86,1.47,2.69-1.1,5.37-2.25,8.13-3.14,7.17-2.31,13.73-5.82,20.06-9.82,1.77-1.12,3.76-2.5,3.45-4.91-.93-7.29-2.22-14.53-4.11-21.64-1.37-5.14-4.72-9.57-5.35-15-.37-3.2-2.75-5.3-4.75-7.51-2-2.2-4.47-3.76-7.65-3.57-4.19.25-8.2,1.29-12.05,2.93-1.04.44-1.75.54-2.56-.27-.92-.91-2.05-1.51-3.35-1.55-3.61-.09-7.45,2.88-7.96,6.5-.24,1.72-1.02,2.66-2.37,3.4-.55.3-1.1.59-1.65.9-4.24,2.34-8.1,5.09-10.6,9.39-1.55,2.66-2.56,5.46-1.51,8.49.63,1.81,1.07,3.72,2.18,5.52Z"/>
  <path class="cls-1" d="m37,238.03c-4.63,2.3-9.32,4.49-13.87,6.94-2.45,1.32-4.85,2.66-7.54,3.41-1.07-.25-1.67-.85-1.73-2.01-.12-2.5-.38-4.99-.26-7.51.11-2.31,1.04-4.01,3.13-5.1.47-.24,1.5-.33,1.18-1.16-.37-.96-.3-2.21-1.44-2.78-.2-.1-.43-.14-.65-.22-3.01-1.12-4.48-3.21-4.13-5.89.37-2.8,2.72-5.02,5.73-5.17,1.74-.09,3.52,0,5.16.77,2.54,1.17,3.13,3.56,1.1,5.5-1.14,1.08-1.05,1.83-.42,3.02,1.37,2.61,1.32,2.63,3.96,1.41,2.61-1.21,3.12-1.11,5.27.93,1.44,1.37,3,2.63,4.35,4.09,1.04,1.11,1.53,2.46.15,3.77Zm-15.4-4.25c-2.54,1.16-4.87,1.68-5.65,4.25-.48,1.57-.27,3.15-.17,4.73.24,4.01.42,4.09,3.9,2,.69-.41.84-.78.45-1.49-.53-.95-.98-1.94-1.45-2.91-.27-.56-.34-1.14.29-1.49.7-.39,1.04.12,1.32.66.29.56.53,1.14.82,1.69,1.14,2.2,1.25,2.21,3.45.95.64-.36.78-.57.31-1.26-.77-1.12-1.42-2.34-1.8-3.68-.2-.73-.25-1.45.57-1.71.83-.27,1.22.29,1.38,1.09.25,1.25.97,2.3,1.57,3.4.52.94,1.18.73,1.8.15.51-.48,1.78-.58.81-1.84-.62-.8-.97-1.81-1.44-2.72-.35-.67-.26-1.2.44-1.58.74-.4,1.18-.07,1.49.59.12.26.23.52.36.78,1.52,2.99,1.77,3.03,4.68,1.5.91-.48.91-.9.27-1.5-1.36-1.3-2.83-2.49-4.1-3.87-.92-1-1.85-1.02-2.88-.46-2.22,1.2-4.73,1.7-6.41,2.72Zm-2.58-3.52c.59.58.19,2.14,1.84,1.61,1.33-.43,1.93-.92,1.02-2.38-1.37-2.2-2.43-4.46.41-6.49.72-.51.57-1.38-.27-1.58-1.63-.39-3.24-1.06-5-.74-1.8.32-3.2,1.8-3.36,3.58-.14,1.62.58,2.7,2.56,3.32,1.44.45,2.45,1.17,2.78,2.68Z"/>
  <path class="cls-1" d="m78.71,561.64c-4.83-1.53-9.63-3.16-14.49-4.57-2.67-.78-5.42-1.26-7.81-2.79-1.1-1.25-.78-2.04.48-3.13,1.79-1.55,3.09-3.65,4.91-5.22,1.49-1.29,3.08-2.11,5.16-1.48.54.16,1.41.92,1.79,0,.41-.99,1.45-1.89.79-3.17-.08-.15-.17-.29-.25-.45-1.28-2.63-1.05-4.91.66-6.64,1.73-1.75,4.62-2.21,7-1.04,2.59,1.27,4.03,3.5,4.71,6.2.45,1.81-.91,3.19-3.21,3.6-.57.1-1.4-.29-1.68.47-.48,1.28-.97,2.59-1.12,3.92-.07.61,1.01.88,1.63,1.01,2.77.59,3.94,2.25,3.67,5.03-.19,1.87.88,3.6.62,5.51-.28,2.07-.91,2.76-2.86,2.75Zm-8.2-13.78c-5.65-2.18-6.18-2.05-9.78,2.23-.18.22-.38.43-.56.65-2.26,2.67-2.26,2.64,1.2,3.63.9.26,1.37.15,1.6-.82.26-1.05.63-2.08.99-3.1.21-.61.64-.97,1.32-.71.65.25.52.8.38,1.31-.18.6-.4,1.19-.58,1.79-.72,2.36-.7,2.37,1.6,3.05.75.22,1.16.37,1.32-.73.2-1.39.63-2.78,1.37-4.03.45-.76,1.18-.7,1.78-.47.73.28.75.97.33,1.57-.58.82-.75,1.78-1.04,2.7-.65,2.06-.53,2.13,1.59,2.48.88.14,1.05-.14,1.19-.88.17-.89.49-1.76.76-2.63.2-.67.44-1.47,1.33-1.2.92.27.65,1.04.4,1.71-.08.21-.15.43-.22.65-.92,3.06-.84,3.13,2.19,4.11,1.14.37,1.48.02,1.43-1.01-.08-1.77-.33-3.54-.26-5.29.06-1.52-.68-2.19-1.94-2.56-2.36-.7-4.47-2.03-6.4-2.44Zm.8-4.59c-.07.22-.08.34-.14.44-.96,1.46-.37,2.1,1.12,2.66,1.82.69,1.43-.84,1.84-1.57.14-.24.2-.53.27-.81.52-1.92,1.18-3.53,3.76-3.19,1.11.15,1.82-.63,1.21-1.91-.72-1.5-1.57-2.9-3.08-3.77-1.57-.9-3.68-.69-4.91.51-1.35,1.31-1.13,2.78-.29,4.21.7,1.19.87,2.32.23,3.43Z"/>
  <path class="cls-1" d="m85.44,58.75c-5.02-1.56-10-3.25-15.06-4.64-2.59-.71-5.18-1.32-7.55-2.63-.68-.99-.58-1.87.21-2.78,1.69-1.93,3.19-4.03,5.15-5.71,1.49-1.29,3.1-2.1,5.18-1.43.5.16,1.3.81,1.65,0,.42-.95,1.32-1.8.92-3.01-.05-.16-.15-.31-.23-.46-2.02-3.36-.54-6.28,1.41-7.57,2.53-1.68,6.22-1.1,8.4,1.35.76.86,1.4,1.81,1.89,2.84,1.35,2.85.29,4.82-2.82,5.28-.58.09-1.35-.21-1.6.63-.37,1.25-1.09,2.46-1,3.77.05.65,1.03.86,1.66,1.01,2.52.57,3.71,1.93,3.73,4.68.02,1.87.65,3.77.59,5.7-.06,1.95-.76,2.72-2.54,2.99Zm-8.44-13.79c-5.96-2.19-6.25-2.11-10.03,2.42-.11.13-.23.25-.34.38-2.32,2.78-2.27,2.9,1.25,3.79.9.23,1.22-.04,1.43-.86.27-1.05.61-2.08.97-3.11.21-.59.63-.99,1.31-.74.66.23.56.79.42,1.3-.27.99-.56,1.98-.88,2.95-.29.91,0,1.41.94,1.59.45.08.89.23,1.31.41.79.33,1.19.26,1.35-.75.21-1.41.61-2.79,1.35-4.04.38-.64.9-.9,1.56-.49.61.38.61.99.22,1.49-.69.9-.86,1.99-1.14,3.01-.2.72-.79,1.76.65,1.99.99.15,2.22.85,2.3-1.13.04-.94.5-1.87.82-2.78.19-.55.65-.83,1.22-.63.59.21.68.71.52,1.27-.1.33-.24.64-.33.97-.94,3.19-.78,3.4,2.41,4.28,1.01.28,1.24-.08,1.19-.94-.11-1.88-.34-3.75-.32-5.63,0-1.26-.55-1.94-1.62-2.26-2.42-.7-4.59-2.04-6.56-2.48Zm1-4.6c-.19.49-.24.66-.32.81-.69,1.18-.32,1.75.93,2.25,1.45.59,1.48-.39,1.75-1.23.07-.22.14-.43.21-.65.64-2.01,1.06-4.12,4.06-3.75,1.07.13,1.56-.78,1.02-1.91-.47-.98-1.04-1.9-1.78-2.7-1.59-1.73-4.13-2.06-5.87-.79-1.6,1.17-1.79,2.57-.34,4.98.71,1.18.8,2.17.34,2.99Z"/>
  <path class="cls-6" d="m64.01,113.14c5.79.58,7.08,1.7,8.59,7.29.57,2.11,1.64,3,3.86,3.25,1.42.16,2.84.32,4.11,1.06.54.31.99.72.76,1.35-.27.71-.95.82-1.58.55-1.33-.58-2.76-.69-4.16-.93-2.56-.44-4.19-1.94-4.88-4.45-.24-.88-.45-1.77-.74-2.64-.72-2.1-2.16-3.29-4.44-3.41-1.22-.07-2.48-.44-3.66-.27-1.44.21-2.17,1.41-2.28,2.83-.12,1.43.49,2.59,1.81,3.22,1.13.54,2.33.93,3.51,1.36,1.59.59,2.33,1.74,2.37,3.4.02.8.09,1.6.19,2.39.23,1.72,1.2,2.66,2.97,2.68.76,0,1.66-.06,1.59,1.02-.07,1.09-1.02,1.07-1.83,1.05-2.6-.04-4.62-1.53-4.63-4.28-.01-3.38-1.63-4.84-4.56-5.69-2.4-.7-3.35-2.66-3.42-4.99-.03-.99-.09-1.31-1.18-1.07-2.11.47-4.25.83-6.39,1.15-.89.13-1.33.62-1.51,1.39-.18.8.12,1.46.82,1.91.29.18.59.35.91.48,2.74,1.14,3.83,3.29,3.7,6.14-.08,1.83.59,2.92,2.49,3.19,1.44.2,2.29,1.17,2.8,2.49.42,1.09.94,2.07,2.18,2.46.52.16.91.6.66,1.2-.24.59-.79.82-1.41.69-1.62-.33-2.58-1.47-3.11-2.91-.49-1.33-1.29-2.01-2.67-2.3-1.81-.38-2.89-1.53-2.9-3.5,0-.4-.14-.8-.1-1.19.21-2.23-.84-3.64-2.78-4.6-1.78-.88-2.94-2.19-2.5-4.36.13-.66-.19-.79-.73-.81-2.24-.11-4.42-.55-6.55-1.21-.66-.2-1.12-.14-1.12.71-.01,1.53-.68,2.87-1.18,4.27-.88,2.48-.4,4.02,2.02,5,2.79,1.14,4.49,2.9,5.08,5.91.32,1.65,2.16,2.97,3.63,2.89.82-.05,1.62-.18,1.57.91-.05,1.05-.87,1.5-1.83,1.32-2.31-.43-4.12-1.64-5.17-3.8-.27-.56-.48-1.18-.58-1.79-.24-1.51-1.11-2.44-2.49-3-.68-.28-1.33-.66-1.97-1.03-2.22-1.28-3.08-3.31-2.41-5.8.31-1.15.78-2.27,1.16-3.4.6-1.79.14-3.18-1.34-4.22-3.62-2.52-5.69-5.68-4.93-10.39.83-5.15,1.29-10.45,4.62-14.69,5.23-6.66,14.81-9.74,22.92-4.69,3.79,2.36,6.38,5.96,7.36,10.35.96,4.29,1.2,8.7.71,13.11-.16,1.47-.69,2.86-1.33,4.38Zm-23.73,1.98c6.68,2.16,13.06.5,19.39-1.56,2.02-.66,3.3-2.2,3.42-4.3.34-6,.7-11.88-2.6-17.52-4.58-7.8-15.09-9-22.14-2.71-1.66,1.48-3.21,3.21-4.1,5.31-1.51,3.57-2.01,7.36-2.27,11.22-.24,3.6,1.17,6.12,4.18,7.92,1.29.77,2.68,1.25,4.12,1.63Z"/>
  <path class="cls-6" d="m79.92,83.95c2.8.77,3.77,2.67,4.26,4.87.24,1.1.59,1.45,1.79,1.27,2.23-.33,3.48.37,3.74,1.77.31,1.64-.89,3.54-2.71,4.05-.88.25-1.59.18-1.01,1.53.31.73.18,1.97-.99,2.43-1.23.49-2.4.41-3.24-.68-.51-.66-.89-1.47-1.19-2.26-.35-.93-.8-1.18-1.8-.84-1.92.65-3.88.73-5.89.24-2.84-.69-4.4-2.38-4.89-5.25-.7-4.04.8-6.37,4.85-7.3,2.18-.5,5.23-.39,7.08.16Zm3.7,13.8c-.02-.61.03-.9-.05-1.15-.5-1.63,0-2.52,1.78-2.62.88-.05,1.52-.65,2.19-1.19q-.95-.62-1.68-.53-2.92.36-3.59-2.61c-.59-2.62-1.45-3.6-3.64-3.9-1.64-.23-3.31-.43-4.94-.05-3.26.75-4.05,1.4-3.63,4.69.3,2.37.94,3.08,3.26,3.8,1.9.59,3.72.33,5.53-.29,1.98-.68,2.41-.48,3.32,1.43.36.75.5,1.64,1.46,2.43Z"/>
  <path class="cls-2" d="m53.99,630.04c-.38.58-.6.91-.81,1.24-.49.78-.98,1.65-2.06,1.57-1.2-.08-1.67-1.08-2.1-2.03-.59-1.31-.49-2.68-.31-4.04.2-1.48-.33-2.29-1.87-2.7-3.36-.9-6.7-1.92-9.99-3.03-1.34-.45-1.95-.07-2.56,1.08-.86,1.58-1.88,3.08-2.87,4.58-.6.91-1.28,1.88-2.58,1.58-1.35-.31-1.42-1.5-1.49-2.59-.07-1.24-.07-2.48-.1-4.12-.9,1.16-1.56,2.03-2.25,2.88-.51.62-1.03,1.31-1.98,1.08-.98-.25-1.34-1.1-1.4-1.96-.18-2.42-.42-4.88.67-7.18.72-1.52.71-2.85.01-4.51-2.18-5.21-1.7-10.51.32-15.67.44-1.12.48-1.91-.53-2.63-.09-.06-.16-.16-.22-.26-.81-1.56-1.83-2.29-3.83-2.18-2.62.15-4.01-1.64-3.59-3.86.16-.82.48-1.63,1.52-1.49.95.13.86.9.74,1.61-.25,1.38.74,1.46,1.67,1.57,1.06.12,1.03-.56,1-1.31-.06-1.76.93-2.88,2.39-3.65,1.67-.88,3.12.07,3.09,1.97-.02,1.42-.69,2.54-1.76,3.38-.89.7-.7,1.34-.08,2,.6.62.77,1.85,2.2,1.29,3.72-1.45,7.61-1.94,11.57-1.49,4.08.47,8.14,1.04,12.19,1.69,1.24.2,1.31-.16.95-1.1-.32-.85-.74-1.68-.96-2.56-.38-1.52.34-2.3,1.89-2.18,4.21.31,8.16,1.65,12.06,3.13,2.3.87,2.59,2.33,1.06,4.26-.56.72-1.22,1.36-1.82,2.05-.92,1.08-.61,1.86.63,2.36.42.17.86.39,1.3.41,3.68.19,6.92,1.88,10.33,2.98.82.26,1.15.22,1.53-.63.97-2.14,3.6-2.75,5.43-1.27.58.47.98.55,1.65.33,1.27-.43,2.08.17,2.53,1.36.54,1.42.68,2.89.46,4.38-.16,1.09.15,1.71,1.28,1.99,3.48.85,4.33,1.72,3.89,6.3-.14,1.48-.24,2.96-.48,4.42-.4,2.48-1.22,3.14-3.71,2.93-2.16-.18-4.31-.43-6.46-.75-1.24-.18-2.36-.14-3.37.72-3.8,3.21-8.23,4.25-13.1,3.68-1.06-.12-1.62.54-2.06,1.25-.87,1.4-1.62,2.88-2.44,4.32-.59,1.04-1.09,2.27-2.58,2.15-1.54-.12-2.26-1.17-2.6-2.57-.05-.19-.2-.36-.44-.78Zm-2.86-.28c.65-.31.8-.87,1.02-1.37.49-1.09.95-2.2,1.45-3.29.35-.76.83-1.46,1.81-1.23.86.21,1.06.96,1.06,1.75,0,.68-.07,1.37-.04,2.05.04.94-.34,2.4.49,2.65,1.16.35,1.28-1.22,1.66-1.99,1.56-3.24,3.32-5.59,7.66-4.86,3.19.54,6.3-.79,8.89-2.83,1.88-1.47,3.82-2.06,6.2-1.56,1.83.38,3.74.38,5.61.63,1,.14,1.47-.15,1.63-1.18.32-2.14.31-4.28.14-6.43-.07-.84-.59-1.14-1.29-1.38-1.79-.6-3.55-1.25-5.33-1.86-1.13-.39-1.64-1.17-1.57-2.35.07-1.08.07-2.17-.13-3.24-.14-.74-.19-1.52-1.2-1.59-1.06-.07-1.43.65-1.54,1.48-.19,1.47-.95,1.61-2.27,1.43-2.94-.39-5.47-1.94-8.29-2.64-1.66-.42-3.41-.32-5.02-1-2.99-1.26-3.6-3.43-1.6-5.94.5-.62,1.07-1.19,1.58-1.8.43-.51.37-.98-.3-1.18-3-.9-5.89-2.19-9.04-2.57-1.11-.13-1.18.28-.78,1.13.5,1.06.72,2.18.48,3.33-.22,1.03-.83,2.01-1.98,1.63-2.59-.85-5.3-.78-7.92-1.36-4.73-1.05-9.46-1.17-14.24-.23-1.72.34-2.8,1.23-3.41,2.75-.98,2.45-1.7,4.99-1.63,7.66.07,2.55,0,5.18,1.72,7.34,1.12,1.4.92,2.78.27,4.3-.79,1.84-1.51,3.73-1.36,6.1.9-1.07,1.6-1.95,2.37-2.77.63-.67,1.35-1.4,2.36-.98,1.01.42.95,1.44,1.02,2.36.09,1.32-.27,2.67.23,4.3.98-1.77,1.77-3.27,2.63-4.74,1.24-2.1,1.89-2.33,4.21-1.62,3.71,1.13,7.36,2.46,11.14,3.4,2.56.63,3.25,1.8,3.19,4.5-.02,1.04-.4,2.13.14,3.19Zm32.78-23.62c.17-.7.13-1.65-.07-2.59-.07-.31-.09-.74-.56-.69-.37.04-.6.34-.61.71-.02.95-.01,1.91.03,2.86.02.38.32.59.71.57.38-.01.39-.33.49-.86Z"/>
  <path class="cls-3" d="m20.76,297.43c-1.11-1.8-1.55-3.71-2.18-5.52-1.05-3.03-.04-5.83,1.51-8.49,2.5-4.3,6.36-7.06,10.6-9.39.55-.3,1.1-.59,1.65-.9,1.35-.74,2.13-1.69,2.37-3.4.51-3.62,4.35-6.6,7.96-6.5,1.3.03,2.43.64,3.35,1.55.82.81,1.53.71,2.56.27,3.84-1.63,7.86-2.67,12.05-2.93,3.18-.19,5.65,1.36,7.65,3.57,2,2.2,4.38,4.31,4.75,7.51.63,5.43,3.98,9.86,5.35,15,1.89,7.11,3.19,14.35,4.11,21.64.31,2.41-1.68,3.79-3.45,4.91-6.32,4-12.89,7.51-20.06,9.82-2.76.89-5.44,2.03-8.13,3.14-2.65,1.09-4.88.36-6.86-1.47-3.66-3.4-6.5-7.47-9.3-11.56-2.87-4.19-5.53-8.52-8.28-12.79-.24-.38-.39-.91-.96-.84-2.84.34-3.94-1.53-4.69-3.6Zm13.61-22.56c-4.12,1.92-7.97,4.13-10.86,7.62-1.71,2.07-3.15,4.36-3.09,7.23.05,2.35.82,3.3,3.18,3.27,4.98-.05,9.92-.62,14.5-2.7,5.51-2.5,11.01-5.03,16.34-7.87,5.29-2.81,9.74-6.69,12.81-11.97.53-.91.57-1.71-.09-2.51-1.87-2.25-4.07-3.8-7.19-3.54-3.14.27-6.12,1.3-9.16,2-.49.11-.93.43-1.4.64-.47.21-.75.43-.35,1,.94,1.35,1.78,2.79,2.76,4.1.48.64,1.06,1.19.34,1.89-.78.75-1.5.41-2.21-.3-.78-.79-1.24-1.78-1.8-2.7-.58-.96-1.09-1.01-2.05-.55-2.88,1.37-5.59,3.14-8.75,3.84-.52.11-.7.31-.61.79.2.99.17,2.08,1.01,2.84.67.61,1.16,1.31.21,1.95-.77.52-1.75.71-2.35-.36-.8-1.42-1.51-2.89-1.22-4.68Zm19.72,39.9c.54,1.67,2.29,3.61,2.51,6.24.05.64.23,1.99,1.72,1.36,3.89-1.63,7.89-3.01,11.67-4.92,1.19-.6,1.5-1.25,1.25-2.53-1.75-9.27-5.08-17.97-9.4-26.33-.64-1.24-1.34-.75-2.05-.28-4.02,2.68-8.47,4.47-12.9,6.31-3.85,1.6-3.78,1.61-1.62,5.35,2.75,4.76,6.3,9.04,8.8,14.79Zm-2.28,1.93c-2.88-7.45-7.35-12.85-10.38-19.05-.41-.84-.94-.61-1.54-.33-2.6,1.19-5.34,1.92-8.12,2.53-3.44.76-3.52.83-1.58,3.83,4.32,6.65,8.48,13.44,14.14,19.11,3.71,3.72,3.69,3.74,8.47,1.81.32-.13.64-.26.96-.36.99-.31,1.41-.8.85-1.88-1.13-2.17-2.18-4.39-2.8-5.66Zm13.57-26.06c3.72,7.41,6.58,15.14,8.07,23.32.16.89.36,1.28,1.26.67,1.27-.86,2.58-1.67,3.86-2.52,1.31-.88,1.66-2.04,1.46-3.65-.63-5.09-2.04-10.03-2.82-15.09-.75-4.84-2.83-9.23-4.81-13.65-.32-.71-.63-1.1-1.29-.28-1.99,2.45-4.31,4.52-7.01,6.17-.7.43-.87.89-.4,1.68.64,1.07,1.13,2.23,1.68,3.36Zm-43.47,4.43c.48.97.85,1.61,1.12,2.3.49,1.23,1.37,1.56,2.6,1.33,3.25-.59,6.59-.96,9.65-2.17,8.1-3.21,16.5-5.77,23.9-10.56,3.77-2.44,7.65-4.75,10.44-8.45,1.23-1.64,1.55-3.23.71-5.07-.14-.3-.29-.75-.53-.83-.47-.16-.63.36-.82.69-2.49,4.36-6.25,7.51-10.23,10.35-3.54,2.52-7.54,4.3-11.51,6.02-4.08,1.76-7.95,4.06-12.3,5.13-4.15,1.02-8.36,1.64-13.01,1.26Zm14.75-22.61c2.95-1.25,5.73-2.25,8.31-3.74.83-.48.9-.83.28-1.53-1.34-1.51-3.77-2-5.41-.95-2.17,1.39-3.25,3.39-3.18,6.22Z"/>
  <g>
    <path class="cls-9" d="m95.25,390.84c1.61,3.96,4.29,7.12,7.62,9.69.94.73,2.33.89,3.53,1.24,4.61,1.33,8.62,3.81,12.59,6.42,7.22,4.75,12.07,11.42,16,18.98,4.38,8.43,5.63,17.39,4.25,26.54-1.22,8.14-4.02,15.95-9.22,22.55-9.33,11.83-21.52,18.68-36.56,20.03-8.11.73-16-.55-23.62-3.65-5.32-2.16-9.93-5.27-14.24-8.99-9.99-8.6-14.89-19.73-15.9-32.6-.77-9.79,1.33-19.15,6.49-27.56,4.62-7.54,10.71-13.74,18.62-17.93,1.54-.82,2.57-1.87,3.38-3.41,1.42-2.72,2.84-5.42,3.35-8.49.71.28,1.44.23,2.19.15,7.21-.74,14.34-2.05,21.53-2.98Zm-4.02,30.83c-.38-.02-.37-.37-.51-.59-1.01-1.64-2.3-2.92-4.38-2.79-2.19.14-3.7,1.35-4.59,3.34-.22.49-.43.99-.71,1.64-.59-.8-1.01-1.46-1.51-2.05-1.06-1.25-2.43-1.87-3.97-1.17-2.5,1.14-4.76,2.77-5.17,5.68-.28,1.96.07,4.01-2.29,4.92-.04.02-.06.1-.09.14-2.96,4.53-4.44,9.31-2.98,14.77,1.13,4.21,3.63,7.71,5.57,11.5,1.01,1.98,2.43,3.32,4.31,4.4,2.75,1.58,5.16,3.55,6.13,6.77.6,1.97.96,3.99,1.16,6.04.09.86.16,1.92,1.41,1.64,1.09-.24,1.01-1.22.85-2.11-.25-1.4-.46-2.82-.73-4.22-.84-4.35-3.18-7.57-7.1-9.71-1.12-.61-2.49-1.03-3.16-2.26-1.71-3.16-3.66-6.17-5.14-9.46-2.23-4.96-1.96-9.77.63-14.45,1.17-2.12,2.87-3.41,5.55-3.12,2.08.22,4.15.45,6.22.73,2.43.33,4.81.83,7.2,1.32.6.12,1.14.41,1.33,1.16.48,1.93-.21,3.95-1.97,4.85-2.56,1.32-5.27,2.15-8.22,1.6-.56-.1-1.12-.22-1.68.05-.76.37-.85,1.07-.76,1.75.12.85.76.38,1.22.37,1.54-.03,3.08-.04,4.62-.05,3.47-.04,6.46-1.14,8.59-4.05,2.3,2.74,3.1,2.89,5.86,1.07.44-.29.65-.14,1.03.05,2.67,1.34,5.28,1.82,7.81-1.05.03,3.69.36,7.01-.41,10.3-.48,2.05-.83,4.14-2.84,5.44-.76.49-.79,1.45-.67,2.35.24,1.88.76,3.69,1.31,5.48,1.01,3.26,2.12,6.49,3.2,9.73.24.72.67,1.28,1.51.96.87-.33.67-1.07.49-1.75-.04-.16-.17-.3-.22-.46-1.35-4.12-2.68-8.25-3.69-12.47-.22-.92-.73-1.99.41-2.81,1.27-.91,1.79-2.29,2.28-3.71,1.41-4.06,1.03-8.2.78-12.36-.15-2.56-1.35-4.95-.99-7.59.19-1.4.13-2.85.08-4.27-.13-4.06-2.26-6.47-5.59-5.97-2.25.34-4.24.42-6.06-1.17-.66-.58-1.6-.48-2.47-.4-1.24.12-1.91.68-1.7,2l.02-.03Z"/>
    <path class="cls-1" d="m95.25,390.84c-7.18.94-14.32,2.24-21.53,2.98-.75.08-1.47.13-2.19-.15-.85-.55-1.27-1.28-.97-2.32.74-2.52,1.28-5.09,2.34-7.51.78-1.8,1.9-3.23,4.02-3.58.58-.1,1.67.21,1.65-.72-.02-1.11.53-2.45-.72-3.33-.05-.03-.09-.08-.13-.11-3.03-1.87-3.24-5.16-1.97-7.28,1.5-2.52,5.24-3.68,8.17-2.47,1.17.48,2.24,1.14,3.19,1.98,2.25,1.99,2.09,4.06-.38,5.75-.48.32-1.38.31-1.3,1.15.13,1.35.36,2.7.61,4.04.02.12.5.21.76.2.8,0,1.59-.06,2.39-.12,2.13-.16,3.15.39,4.12,2.24,1,1.92,2.1,3.8,2.96,5.78.57,1.31.66,2.72-1.04,3.47Zm-13.16-8.99c-6.23.33-6.94.9-8.37,6.1-.09.33-.2.66-.29.99-.86,3.16-.74,3.26,2.6,2.75,1.01-.16,1.38-.53,1.16-1.56-.21-.95-.27-1.92-.39-2.89-.08-.68,0-1.33.83-1.41.78-.08.89.55.97,1.14.1.74.24,1.47.27,2.21.06,1.44.65,2.11,2.16,1.65.38-.11.79-.13,1.19-.16.7-.04.78-.28.59-.97-.36-1.32-.55-2.68-.52-4.06.02-.74.22-1.44,1.08-1.46.97-.02.98.73.95,1.46-.07,1.26.21,2.49.41,3.73.19,1.17.98.94,1.67.68.61-.23,1.75.03,1.38-1.37-.29-1.09-.37-2.25-.49-3.38-.06-.59.25-1,.88-1.02.55-.01.82.34.89.85.04.28.06.57.09.85.46,3.52.47,3.47,3.96,3.07,1.43-.16,1.47-.78.9-1.74-.88-1.5-2-2.89-2.73-4.46-.61-1.3-1.45-1.58-2.71-1.47-2.44.2-4.89.36-6.48.47Zm.58-2.13c1.1.16,1.23-.39,1.07-1.22-.12-.62-.12-1.25-.24-1.87-.39-1.95-.32-3.61,2.03-4.34.7-.22,1.41-.87.7-1.87-1.88-2.68-5.52-3.18-8.07-1.09-1.65,1.36-1.53,3.92.41,4.81,1.76.8,2.35,2.09,2.22,3.8-.12,1.57.47,2.1,1.88,1.78Z"/>
    <path class="cls-3" d="m91.2,421.69c-.2-1.33.46-1.88,1.7-2,.87-.09,1.81-.18,2.47.4,1.83,1.59,3.81,1.51,6.06,1.17,3.34-.5,5.47,1.91,5.59,5.97.04,1.42.1,2.87-.08,4.27-.36,2.64.84,5.03.99,7.59.25,4.16.63,8.3-.78,12.36-.5,1.43-1.01,2.81-2.28,3.71-1.15.82-.63,1.89-.41,2.81,1.01,4.22,2.34,8.35,3.69,12.47.05.16.18.3.22.46.19.68.39,1.42-.49,1.75-.84.32-1.27-.24-1.51-.96-1.08-3.24-2.2-6.47-3.2-9.73-.55-1.79-1.07-3.61-1.31-5.48-.12-.9-.09-1.86.67-2.35,2.01-1.3,2.36-3.39,2.84-5.44.76-3.29.44-6.61.41-10.3-2.53,2.87-5.14,2.39-7.81,1.05-.38-.19-.59-.34-1.03-.05-2.76,1.82-3.56,1.66-5.86-1.07-2.13,2.91-5.11,4.01-8.59,4.05-1.54.02-3.08.02-4.62.05-.46,0-1.1.47-1.22-.37-.1-.68,0-1.38.76-1.75.56-.27,1.12-.16,1.68-.05,2.95.55,5.65-.28,8.22-1.6,1.76-.91,2.45-2.92,1.97-4.85-.19-.75-.74-1.04-1.33-1.16-2.39-.49-4.77-.99-7.2-1.32-2.07-.28-4.14-.51-6.22-.73-2.68-.28-4.38,1.01-5.55,3.12-2.59,4.69-2.86,9.5-.63,14.45,1.48,3.29,3.43,6.31,5.14,9.46.67,1.23,2.04,1.65,3.16,2.26,3.92,2.15,6.26,5.36,7.1,9.71.27,1.4.48,2.81.73,4.22.16.89.24,1.86-.85,2.11-1.25.28-1.32-.78-1.41-1.64-.21-2.05-.57-4.07-1.16-6.04-.97-3.22-3.38-5.2-6.13-6.77-1.89-1.08-3.3-2.42-4.31-4.4-1.94-3.8-4.44-7.29-5.57-11.5-1.47-5.46.02-10.24,2.98-14.77.03-.05.05-.13.09-.14,2.36-.92,2.01-2.96,2.29-4.92.41-2.91,2.67-4.53,5.17-5.68,1.54-.7,2.91-.08,3.97,1.17.5.59.93,1.25,1.51,2.05.28-.65.49-1.15.71-1.64.89-1.99,2.4-3.2,4.59-3.34,2.08-.13,3.37,1.15,4.38,2.79.14.23.14.57.51.59.45,1.93.87,3.87,1.34,5.79.72,2.89-.25,5.86.43,8.75.2.85.31,1.82,1.28,2.01,1.11.22,1.43-.83,1.7-1.58,1.39-3.84,1.73-7.75.5-11.7-.65-2.07-1.65-2.81-3.82-2.84-.54,0-.98-.24-1.45-.41Zm13.51,5.45c-.15-.68-.22-1.44-.49-2.12-.55-1.4-2.24-1.86-4.33-1.24-1.51.44-.53,1.55-.44,2.24.45,3.41.79,6.77-.85,9.99-.17.33-.35.85.06,1.11,1.05.65,2.07,1.37,3.44,1.18,1.29-.18,1.63-1.16,1.94-2.12.93-2.93.76-5.96.67-9.03Zm-14.47.64c-.39-1.64-.57-3.78-1.6-5.66-.9-1.66-2.14-1.93-3.61-.9-2.08,1.47-1.88,3.74-1.98,5.84-.08,1.56.72,2.54,2.45,2.62.9.04,1.81.23,2.68.46,2.51.66,2.51.68,2.06-2.36Zm-10.33.8c-.22-2.15-.84-4.06-2.02-5.77-.49-.71-1.22-.94-1.94-.53-1.9,1.08-3.02,2.8-3.58,4.87-.17.61-.05,1.12.82,1.07,2.21-.11,4.4.16,6.73.36Z"/>
    <path class="cls-10" d="m104.72,427.13c.1,3.07.26,6.1-.67,9.03-.31.96-.65,1.94-1.94,2.12-1.38.19-2.4-.53-3.44-1.18-.41-.25-.23-.78-.06-1.11,1.64-3.22,1.3-6.59.85-9.99-.09-.69-1.07-1.8.44-2.24,2.09-.61,3.78-.15,4.33,1.24.27.68.34,1.44.49,2.12Z"/>
    <path class="cls-10" d="m91.2,421.69c.47.17.91.4,1.45.41,2.17.03,3.18.77,3.82,2.84,1.23,3.95.89,7.86-.5,11.7-.27.75-.59,1.8-1.7,1.58-.98-.19-1.08-1.16-1.28-2.01-.68-2.89.29-5.86-.43-8.75-.48-1.92-.9-3.86-1.34-5.79,0,0-.02.03-.02.03Z"/>
    <path class="cls-10" d="m90.24,427.78c.45,3.04.45,3.01-2.06,2.36-.88-.23-1.78-.42-2.68-.46-1.73-.07-2.53-1.06-2.45-2.62.1-2.1-.1-4.37,1.98-5.84,1.47-1.03,2.7-.77,3.61.9,1.03,1.89,1.21,4.02,1.6,5.66Z"/>
    <path class="cls-10" d="m79.92,428.58c-2.33-.2-4.52-.47-6.73-.36-.88.05-.99-.46-.82-1.07.56-2.08,1.68-3.79,3.58-4.87.72-.41,1.45-.18,1.94.53,1.18,1.71,1.81,3.62,2.02,5.77Z"/>
  </g>
  <path class="cls-10" d="m40.29,115.12c-1.44-.38-2.83-.86-4.12-1.63-3.01-1.8-4.43-4.32-4.18-7.92.26-3.86.76-7.65,2.27-11.22.89-2.1,2.44-3.83,4.1-5.31,7.05-6.29,17.56-5.09,22.14,2.71,3.31,5.64,2.94,11.52,2.6,17.52-.12,2.09-1.4,3.64-3.42,4.3-6.33,2.05-12.71,3.72-19.39,1.55Z"/>
  <path class="cls-10" d="m83.62,97.75c-.96-.79-1.1-1.68-1.46-2.43-.91-1.91-1.34-2.11-3.32-1.43-1.82.63-3.63.89-5.53.29-2.32-.72-2.96-1.44-3.26-3.8-.41-3.29.37-3.94,3.63-4.69,1.63-.38,3.3-.18,4.94.05,2.19.31,3.06,1.29,3.64,3.9q.66,2.97,3.59,2.61.72-.09,1.68.53c-.67.54-1.31,1.14-2.19,1.19-1.78.1-2.28,1-1.78,2.62.08.25.03.54.05,1.15Z"/>
  <path class="cls-10" d="m51.14,629.76c-.55-1.06-.16-2.15-.14-3.19.06-2.71-.64-3.87-3.19-4.5-3.78-.94-7.43-2.27-11.14-3.4-2.32-.71-2.97-.48-4.21,1.62-.86,1.47-1.66,2.97-2.63,4.74-.5-1.63-.14-2.98-.23-4.3-.07-.92,0-1.94-1.02-2.36-1.01-.42-1.74.31-2.36.98-.76.82-1.46,1.71-2.37,2.77-.15-2.36.57-4.25,1.36-6.1.65-1.52.85-2.9-.27-4.3-1.72-2.16-1.65-4.79-1.72-7.34-.07-2.67.65-5.2,1.63-7.66.61-1.52,1.69-2.42,3.41-2.75,4.78-.93,9.51-.81,14.24.23,2.62.58,5.33.51,7.92,1.36,1.15.38,1.76-.6,1.98-1.63.25-1.15.02-2.28-.48-3.33-.4-.85-.33-1.27.78-1.13,3.15.38,6.04,1.67,9.04,2.57.67.2.73.67.3,1.18-.51.61-1.09,1.18-1.58,1.8-2.01,2.51-1.39,4.68,1.6,5.94,1.62.68,3.36.59,5.02,1,2.82.71,5.36,2.25,8.29,2.64,1.33.18,2.08.04,2.27-1.43.11-.83.48-1.55,1.54-1.48,1.01.07,1.06.86,1.2,1.59.2,1.08.19,2.16.13,3.24-.07,1.18.44,1.96,1.57,2.35,1.78.61,3.55,1.27,5.33,1.86.7.24,1.23.54,1.29,1.38.17,2.15.18,4.28-.14,6.43-.15,1.03-.62,1.32-1.63,1.18-1.86-.25-3.77-.25-5.61-.63-2.38-.5-4.32.09-6.2,1.56-2.59,2.03-5.7,3.36-8.89,2.83-4.34-.73-6.09,1.62-7.66,4.86-.37.77-.5,2.35-1.66,1.99-.83-.25-.44-1.71-.49-2.65-.03-.68.03-1.37.04-2.05,0-.8-.2-1.55-1.06-1.75-.97-.23-1.45.47-1.81,1.23-.5,1.09-.96,2.19-1.45,3.29-.22.5-.37,1.06-1.02,1.37Zm32.5-13.99c-.21.61-.66,1.53.32,1.96,1.04.45,1.3-.56,1.62-1.28.09-.21.16-.42.25-.63.3-.73,1.23-1.65.07-2.18-1.22-.56-1.59.67-2.01,1.52-.07.15-.13.32-.24.62Zm-.74-.16c.11-.82,1.03-2.01-.26-2.45-1.5-.51-1.32,1.14-1.68,1.96-.35.78-.63,1.8.54,2.08,1.11.27,1.12-.82,1.4-1.59Z"/>
  <path class="cls-8" d="m83.92,606.14c-.1.53-.11.85-.49.86-.39.01-.69-.2-.71-.57-.05-.95-.05-1.91-.03-2.86,0-.37.24-.67.61-.71.46-.05.49.38.56.69.2.95.24,1.9.07,2.59Z"/>
  <path class="cls-10" d="m34.37,274.88c-.29,1.8.42,3.26,1.22,4.68.6,1.07,1.58.88,2.35.36.95-.64.46-1.33-.21-1.95-.83-.76-.81-1.84-1.01-2.84-.09-.47.09-.67.61-.79,3.16-.7,5.88-2.47,8.75-3.84.96-.46,1.47-.41,2.05.55.55.92,1.01,1.91,1.8,2.7.71.71,1.44,1.05,2.21.3.72-.7.14-1.25-.34-1.89-.99-1.32-1.82-2.75-2.76-4.1-.4-.57-.12-.79.35-1,.47-.21.91-.53,1.4-.64,3.05-.7,6.02-1.74,9.16-2,3.12-.26,5.32,1.29,7.19,3.54.66.8.62,1.6.09,2.51-3.07,5.28-7.52,9.15-12.81,11.97-5.33,2.84-10.84,5.37-16.34,7.87-4.58,2.08-9.52,2.64-14.5,2.7-2.36.02-3.13-.92-3.18-3.27-.06-2.87,1.39-5.17,3.09-7.23,2.89-3.49,6.74-5.7,10.86-7.62Z"/>
  <path class="cls-10" d="m54.09,314.78c-2.51-5.75-6.06-10.03-8.8-14.79-2.16-3.74-2.23-3.74,1.62-5.35,4.43-1.85,8.88-3.63,12.9-6.31.71-.47,1.42-.96,2.05.28,4.31,8.36,7.65,17.05,9.4,26.33.24,1.28-.06,1.93-1.25,2.53-3.78,1.91-7.78,3.29-11.67,4.92-1.49.62-1.67-.72-1.72-1.36-.22-2.63-1.97-4.57-2.51-6.24Z"/>
  <path class="cls-10" d="m51.81,316.71c.63,1.27,1.68,3.49,2.8,5.66.56,1.08.13,1.57-.85,1.88-.33.1-.64.23-.96.36-4.79,1.93-4.77,1.91-8.47-1.81-5.66-5.67-9.81-12.46-14.14-19.11-1.95-3-1.86-3.07,1.58-3.83,2.78-.61,5.53-1.34,8.12-2.53.6-.28,1.14-.5,1.54.33,3.03,6.2,7.49,11.6,10.38,19.05Z"/>
  <path class="cls-10" d="m65.38,290.65c-.55-1.12-1.04-2.29-1.68-3.36-.47-.79-.3-1.25.4-1.68,2.7-1.65,5.02-3.72,7.01-6.17.66-.81.97-.43,1.29.28,1.98,4.42,4.07,8.81,4.81,13.65.78,5.06,2.2,10,2.82,15.09.2,1.61-.14,2.77-1.46,3.65-1.28.85-2.59,1.66-3.86,2.52-.9.61-1.1.23-1.26-.67-1.5-8.18-4.35-15.91-8.07-23.32Z"/>
  <path class="cls-10" d="m21.91,295.07c4.65.38,8.86-.23,13.01-1.26,4.36-1.07,8.23-3.37,12.3-5.13,3.97-1.72,7.98-3.5,11.51-6.02,3.98-2.84,7.74-5.99,10.23-10.35.19-.33.35-.84.82-.69.24.08.39.53.53.83.84,1.84.52,3.43-.71,5.07-2.79,3.7-6.66,6.01-10.44,8.45-7.4,4.79-15.8,7.35-23.9,10.56-3.06,1.21-6.4,1.58-9.65,2.17-1.23.22-2.12-.1-2.6-1.33-.27-.68-.64-1.33-1.12-2.3Z"/>
  <path class="cls-10" d="m36.66,272.46c-.07-2.83,1.01-4.83,3.18-6.22,1.64-1.05,4.07-.56,5.41.95.62.7.55,1.05-.28,1.53-2.58,1.5-5.37,2.49-8.31,3.74Z"/>
  <path class="cls-2" d="m83.64,615.77c.12-.3.17-.46.24-.62.42-.86.79-2.09,2.01-1.52,1.16.54.24,1.45-.07,2.18-.09.21-.16.43-.25.63-.32.71-.58,1.73-1.62,1.28-.98-.43-.52-1.35-.32-1.96Z"/>
  <path class="cls-2" d="m82.9,615.61c-.27.77-.29,1.86-1.4,1.59-1.17-.29-.89-1.3-.54-2.08.36-.81.18-2.46,1.68-1.96,1.29.43.36,1.63.26,2.45Z"/>
  <path class="cls-1" d="m80.66,42.98c-.82-3.77,1.26-7.43,1.92-11.07.72-3.94-.35-7.54-2.26-10.99s-4.64-6.75-5.43-10.76c-.58-2.94.27-6.57,3.22-7.88,1.47-.65.2-2.81-1.26-2.16-3.06,1.36-4.51,4.76-4.62,7.95-.15,4.23,2.21,8.03,4.36,11.48,2.37,3.81,4.45,7.67,3.45,12.29-.86,3.95-2.7,7.68-1.8,11.8.34,1.57,2.75.91,2.41-.66h0Z"/>
  <path class="cls-1" d="m21.99,231.04c-5.98-5.91-5.3-15.3-1.1-21.99,4.63-7.37,12.65-12.07,20.62-15.04,4.24-1.58,8.62-2.76,13.03-3.77s9.08-1.72,13.42-3.25c6.89-2.42,12.04-7.35,14.62-14.2s2.15-15.35-2.08-21.67c-.89-1.33-3.06-.08-2.16,1.26,3.77,5.64,4.24,12.82,2.04,19.15-1.11,3.19-2.93,6.14-5.37,8.49-2.96,2.85-6.75,4.42-10.67,5.47-4.43,1.19-8.97,1.93-13.41,3.04s-8.67,2.41-12.82,4.16c-7.81,3.29-15.4,8.32-19.78,15.77s-4.65,17.89,1.89,24.35c1.15,1.13,2.91-.63,1.77-1.77h0Z"/>
</svg>