<?xml version="1.0" encoding="UTF-8"?>
<svg id="Layer_1" data-name="Layer 1" xmlns="http://www.w3.org/2000/svg" viewBox="0 0 55.89 89.9">
  <defs>
    <style>
      .cls-1 {
        stroke-width: 0px;
      }
    </style>
  </defs>
  <path class="cls-1" d="m42.24,74.75c-.94,2.95-3.01,4.71-5.5,4.63-.67-.02-1.32-.39-1.99-.45-.77-.08-1.57-.07-2.32.08-.17.03-.32.78-.28,1.17.21,2.06.46,4.12.73,6.17.24,1.82-.17,2.77-1.93,3.07-2.18.37-4.43.41-6.65.48-1.07.04-1.29-.63-1.09-1.66.57-2.9,1.03-5.83,1.53-8.75.04-.23,0-.48,0-.68-2.93.05-5.64-.32-7.73-2.57-3.98,2.06-8.16-.02-9.84-3.66-.3-.64-.65-.74-1.3-.76-1.79-.05-3.44-.59-4.79-1.83-1.38-1.26-1.44-2.74-.19-4.09,2.8-3.01,5.68-5.96,7.62-9.65.37-.69.39-1.12-.17-1.79-.69-.82-1.19-1.84-1.55-2.86-.55-1.53-.32-2.9,1.08-4.03,3.37-2.73,5.79-6.24,7.79-10.07-1.34-1.19-1.14-2.04-.36-3.31,1-1.64,2.31-3.16,3.75-4.44,4-3.54,7.48-7.48,9.97-12.23.45-.86.82-.88,1.86-.54,2.73.89,3.41,3.32,4.53,5.36,1.86,3.42,3.91,6.64,6.71,9.39.53.52.47,1.68.62,2.55.12.68-.02,1.45.26,2.04,1.41,2.97,2.89,5.92,4.43,8.83.62,1.18,1.49,2.23,2.17,3.38,1,1.69.87,3.62-.5,5.05-.82.86-.8,1.6-.43,2.61,1.45,3.97,3.88,7.32,6.55,10.51.72.86.91,1.5.31,2.57-1.24,2.21-3.23,2.85-5.5,2.99-.73.05-1.26.16-1.76.77-.97,1.2-2.29,1.78-3.87,1.71-.69-.03-1.38,0-2.15,0Zm-15.31-14.73c-2.44.37-4.04-.42-5.42-1.84-.59-.6-.88-.19-.97.52-.17,1.41-.33,2.83-.63,4.21-.75,3.41-1.6,6.8-2.34,10.21-.1.45.14,1.04.35,1.5,1.06,2.22,3.25,2.37,5.27,2.71.94.16,1.46-.43,1.56-1.42.17-1.61.43-3.22.65-4.83.49-3.57.99-7.14,1.53-11.04Zm-19.03,10.72c.32.63.61,1.3.98,1.92,1.2,2.02,3.65,3.2,5.91,2.76.41-.08.95-.62,1.05-1.04.78-3.23,1.46-6.48,2.17-9.72.43-1.96.87-3.91,1.32-5.91-1.36-.28-2.37-.49-3.34-.69-1.69,4.92-5.1,8.63-8.09,12.68Zm25.84-10.69c-.66,6,0,11.51,1.77,16.91.25.78.84,1.02,1.63.94,2.24-.21,4.09-2.93,3.48-5.1-.29-1.01-.57-2.04-.73-3.07-.52-3.24-.97-6.48-1.47-9.85-1.49-.05-2.93,1.58-4.67.17Zm-3.45-2.74c-.58.7-1.16,1.37-1.7,2.08-.2.27-.37.62-.42.95-.64,4.7-1.23,9.4-1.92,14.09-.15,1.05.23,1.7,1.07,2.05,1.82.76,3.72,1.09,5.7.78.8-.13.99-.43.75-1.22-1.4-4.58-2.09-9.27-1.69-14.05.16-1.93-.27-3.48-1.81-4.68Zm-2.99-19.15c-.41,1.03-.85,1.86-1.07,2.74-.31,1.26-.32,2.59-.68,3.83-1.03,3.63-2.18,7.22-3.26,10.84-.11.37-.18.94.02,1.19.45.56,1.01,1.12,1.65,1.42,1.99.94,4.19.59,4.86-1.88.2-.74.3-1.52.35-2.29.24-3.68.34-7.38.73-11.05.18-1.64.17-2.89-1.5-3.67-.34-.16-.56-.57-1.1-1.15Zm-5.82.81c-1.52,5.33-4.44,10.15-7.5,15,.93,1.68,2.35,2.75,4.35,3.04,1.21.17,2.12-.38,2.51-1.54.77-2.31,1.65-4.59,2.29-6.93.68-2.53,1.13-5.11,1.61-7.33-1.27-.87-2.24-1.53-3.26-2.23Zm-8.57,16.3c-.78.19-1.45.31-2.09.53-.3.1-.66.32-.79.59-1.83,3.74-4.55,6.82-7.38,9.8-1.96,2.06-.93,2.76.83,3.69.28.15.62.19.92.3,1.02.35,1.85.2,2.54-.75,1.61-2.2,3.35-4.29,4.91-6.52.95-1.35,1.73-2.84,2.42-4.35.24-.52.12-1.33-.12-1.89-.24-.56-.84-.96-1.25-1.4Zm26.06-17.52c0,.5-.08,1.11.02,1.69.27,1.64.57,3.28.93,4.9.7,3.2,1.76,6.25,3.84,8.86.68.85,2.81,1.1,3.55.43,1.28-1.16,1.55-2.77.72-4.3-1.36-2.5-2.75-4.97-4.06-7.49-.84-1.61-1.55-3.28-2.28-4.84-.92.26-1.75.49-2.7.76Zm-18.37-.34c-.13-.05-.27-.1-.4-.15-.63.26-1.26.71-1.9.73-1.12.04-1.68.66-2.14,1.51-1.76,3.25-3.89,6.18-6.69,8.64-2.16,1.9-1.81,3.01-.15,5.34.75,1.04,1.86,1.07,2.76.15.53-.54,1.08-1.1,1.46-1.75,1.51-2.55,3.08-5.09,4.39-7.74,1.06-2.16,1.79-4.48,2.67-6.73Zm14.16,2.25c0,.43-.06.88,0,1.31.87,5.11,1.71,10.23,2.65,15.33.41,2.24.77,2.37,2.98,1.78.23-.06.47-.13.69-.23,1.23-.57,2.07-2.88,1.36-3.81-1.78-2.34-2.89-4.98-3.56-7.81-.5-2.12-.88-4.28-1.29-6.31-.96-.09-1.83-.17-2.85-.27Zm9.44,15.63c.15,1.09.21,2.21.46,3.28.9,3.88,2.26,7.59,4,11.2.57,1.18,1.18,1.2,2.12.96.66-.17,1.33-.37,1.95-.67,1.43-.69,1.67-1.79.77-3.06-1.45-2.05-2.98-4.06-4.25-6.22-1.01-1.73-1.68-3.66-2.5-5.49h-2.56Zm-1.03,3.22c-.79.35-1.49.78-2.25.97-.83.21-1.04.64-.94,1.4.14,1,.21,2.02.4,3.01.51,2.75,1.03,5.5,1.62,8.24.09.41.53.97.9,1.05.74.16,1.55.12,2.3.01,1.58-.23,2.73-1.66,2.18-2.72-1.98-3.8-3.21-7.85-4.21-11.96Zm-10.25-18.57c-.48.51-1.42,1.05-1.48,1.68-.38,3.79-.55,7.6-.81,11.4-.15,2.18,1.08,3.67,2.49,5.04.5.48,1.23.79,1.91.98.84.24,1.36-.4,1.2-1.24-1.1-5.89-2.18-11.79-3.31-17.86Zm-6.46,37.99c-.51,3.46-1.02,6.93-1.57,10.74,1.86-.22,3.73-.43,5.6-.67.74-.1,1.01-.59.92-1.32-.32-2.58-.63-5.15-.95-7.76-1.38-.34-2.78-.69-3.99-.99Zm2.23-53.58c-.09-.04-.18-.07-.26-.11-.2.38-.38.78-.59,1.15-1.56,2.81-3.06,5.65-4.7,8.41-.99,1.67-1.13,2.94,0,4.51.29.41,1.22.91,1.3.83.98-1.01,2.24-1.99,2.65-3.23.57-1.74.45-3.69.69-5.55.26-2.01.61-4.01.91-6.01Zm3.83-4.36l-.19.13c.31,1.34.52,2.71.96,4.01,1.26,3.75,2.98,7.3,5.18,10.6.34.51.94.85,1.42,1.27.43-.59.96-1.14,1.27-1.79.4-.81-.05-1.46-.65-2.04-2.14-2.04-3.86-4.4-5.22-7.02-.89-1.73-1.84-3.43-2.76-5.14Zm-1,3.61c-.06,0-.12.01-.18.02,0,.4,0,.81,0,1.21.03,4.3,1.14,8.33,3.09,12.15.43.85,1.83,1.63,2.53,1.26.57-.3.71-1.84.29-2.61-1.29-2.39-2.62-4.76-3.81-7.2-.76-1.55-1.28-3.22-1.91-4.84Zm-4.79.79c.05.08.1.16.16.23-2.77,2.58-5.56,5.12-8.28,7.75-.77.75-1.41,1.7-1.87,2.66-.47,1,.16,1.8,1.19,1.5.93-.27,2.05-.73,2.56-1.46,1.66-2.4,3.09-4.96,4.57-7.48.61-1.04,1.11-2.14,1.66-3.21Zm3.17,2.39c-.14.55-.24.8-.27,1.07-.32,2.5-.47,5.03-.99,7.48-.33,1.54.16,2.41,1.24,3.29.62.51,1.12,1.13,1.99.52.95-.66,1.22-1.58.74-2.6-1.42-3-2.19-6.17-2.7-9.77Z"/>
  <path class="cls-1" d="m29.03,10.55c-1.47.75-2.78,1.48-4.14,2.09-.41.19-.97.05-1.46.06.03-.53-.12-1.19.14-1.56.83-1.19,1.82-2.27,2.67-3.3-.64-1.03-1.25-1.94-1.76-2.9-.16-.29-.17-.89.02-1.08.24-.25.8-.39,1.15-.3,1.08.29,2.13.71,3.27,1.12.16-1.12.22-2.17.48-3.17.14-.54.63-1,.96-1.49.39.41.88.76,1.16,1.24.5.87.88,1.81,1.32,2.75,1.43-.71,2.71-1.4,4.04-1.99.38-.17.9-.03,1.35-.03,0,.49.16,1.07-.04,1.46-.57,1.12-1.28,2.17-1.98,3.31.67.57,1.4,1.08,1.99,1.73.3.33.52.96.41,1.36-.08.3-.73.59-1.15.63-1.33.14-2.67.16-4.15.23-.25,1.23-.44,2.47-.78,3.66-.15.52-.62.95-.94,1.42-.37-.42-.87-.78-1.09-1.27-.55-1.26-.97-2.57-1.47-3.95Zm2.18,1.84c.1-.01.19-.02.29-.03.13-.8.24-1.6.38-2.39.14-.73.41-1.1,1.33-.92.97.19,2,.04,3.01.04.12-.11.23-.22.35-.33-3.22-1.05-1.95-2.72-.85-4.41-.76.3-1.34.64-1.91.98-1.1.65-1.64.51-2.28-.61-.24-.41-.48-.82-.72-1.24l-.31.12c0,.44.01.88,0,1.32-.04,1.54-.54,1.87-2,1.32-.58-.22-1.14-.48-1.7-.72.08.46.26.72.48.93,1.06,1.02,1.08,1.24.09,2.39-.36.42-.73.84-1.1,1.27.75-.13,1.29-.49,1.85-.79,1.19-.63,1.86-.35,2.31.92.26.71.52,1.42.77,2.13Z"/>
</svg>