<?xml version="1.0" encoding="UTF-8"?>
<svg id="Layer_1" data-name="Layer 1" xmlns="http://www.w3.org/2000/svg" viewBox="0 0 30.39 34.25">
  <defs>
    <style>
      .cls-1 {
        stroke-width: 0px;
      }
    </style>
  </defs>
  <path class="cls-1" d="m8.34,8.36c-.85-.21-1.71-.38-2.54-.65-.25-.08-.42-.42-.62-.64.24-.14.5-.44.71-.41,1.03.15,2.04.38,3.21.61-.34-.56-.62-1.01-.89-1.47-.73-1.22-.78-2.52-.4-3.84.53-1.78,2.91-2.45,4.46-1.17.67.55,1.1,1.43,1.56,2.21.25.43.31.96.51,1.62.26-.53.46-.94.66-1.33.84-1.63,2.12-2.72,3.91-3.18,1.48-.38,2.65.31,3.03,1.78.41,1.57.18,2.78-.81,4.46,1.08-.14,2.2-.3,3.33-.42.29-.03.67,0,.87.15.26.2.38.57.56.87-.31.11-.64.35-.93.3-1.33-.21-2.54.02-3.66.91,1.02,0,2.05-.04,3.07.01,1.29.06,2.58.11,3.85.34,1.64.3,2.24,1.04,2.19,2.68-.1,3.23-.28,6.45-.43,9.67-.13,2.58-.27,5.16-.41,7.74-.07,1.19-.16,2.37-.24,3.56-.07,1.07-.69,1.46-1.69,1.46-1.87,0-3.74.01-5.61.08-5.33.18-10.66.41-16,.55-1.38.03-2.77-.19-4.15-.36C.55,33.73-.01,33.12,0,31.78c.04-3.3.11-6.59.23-9.89.11-3.12.31-6.24.46-9.36.05-.91,0-1.83.17-2.71.06-.3.63-.68,1-.72,1.72-.18,3.46-.25,5.19-.38.43-.03.85-.12,1.27-.19,0-.06,0-.12.01-.17Zm20.41,11.41c.08-1.44.16-2.69.22-3.94.06-1.29.14-2.58.16-3.87.03-1.97-.16-2.34-2.15-2.37-4.07-.07-8.14.07-12.21.13-.19,0-.39.08-.74.15v11.6c4.92-.17,9.83-.44,14.71-1.7Zm-14.67,13.02c.41.03.61.07.81.06,4.14-.15,8.27-.33,12.41-.46.67-.02.78-.38.81-.9.07-1.39.14-2.78.21-4.17.1-2.03.19-4.06.28-5.89-4.93.51-9.79,1.01-14.52,1.49v9.86Zm-1.34-23.17c-3.35.21-6.69.43-10.04.63-.78.05-.82.63-.83,1.16-.1,2.95-.19,5.91-.23,8.86,0,.24.36.65.61.69,1.14.18,2.29.33,3.44.36,2.29.05,4.59.02,7.06.02v-11.71Zm-.04,13.17c-3.84-.19-7.49-.37-11.21-.55-.06,1.07-.16,2.28-.19,3.49-.05,1.94-.06,3.87-.08,5.81,0,.72.29,1.12,1.08,1.16,1.49.08,2.97.28,4.46.33,1.99.06,3.99.01,5.93.01v-10.25Zm1.96-14.91c.11.08.22.16.34.23,1.65-.38,3.17-1.07,4.52-2.12,1.19-.93,1.61-2.29,1.19-3.72-.24-.83-.81-1.31-1.59-.88-.96.52-2.08,1.09-2.61,1.95-.84,1.38-1.26,3.02-1.85,4.55Zm-1.16.06c-.18-1.29-.29-2.48-.55-3.64-.16-.71-.49-1.41-.89-2.03-.45-.71-1.2-1.03-2.04-.83-.86.21-1.1.93-1.18,1.72-.23,2.21,2.03,4.74,4.65,4.78Z"/>
</svg>