<?xml version="1.0" encoding="UTF-8"?>
<svg id="Layer_1" data-name="Layer 1" xmlns="http://www.w3.org/2000/svg" viewBox="0 0 19.48 37.39">
  <defs>
    <style>
      .cls-1 {
        stroke-width: 0px;
      }
    </style>
  </defs>
  <path class="cls-1" d="m11.55,37.39c-2.67-.29-5.37-.45-8.02-.9-3.68-.63-4.56-2.84-2.31-5.8,1.79-2.36,3.75-4.59,5.67-6.86.97-1.14,1.4-2.44,1.45-3.9.06-2.06.08-4.11.15-6.17.02-.52-.1-.83-.61-1.11-1.2-.67-1.14-2.05.07-2.72,1.33-.74,5.03-.23,6.06.85.61.63.43,1.48-.55,1.82-.86.3-.98.8-.97,1.58.03,2.08-.13,4.18,0,6.25.06.98.43,2.06.98,2.88,1.61,2.41,3.47,4.64,5.08,7.06,2.16,3.25.31,6.62-3.65,6.79-1.11.05-2.23,0-3.34,0,0,.08-.01.16-.02.23Zm-.04-1.25c0-.07.01-.13.02-.2.98,0,1.96.02,2.94,0,1.35-.04,2.45-.61,3.39-1.58.62-.65.75-1.35.33-2.12-.45-.83-.98-1.61-1.45-2.43-.35-.61-.85-.89-1.56-.93-2.36-.13-4.71-.31-7.06-.43-1.16-.06-2.51-.38-3.43.08-.99.5-1.6,1.77-2.34,2.73-1.78,2.34-1.35,3.57,1.55,4.04,2.52.4,5.08.57,7.62.84Zm-3.19-24.77q1.32.58,1.3,2.14c-.02,1.95-.08,3.91-.07,5.86.02,2.14-.51,4.06-1.99,5.66-.6.65-1.15,1.35-1.81,2.13,3.16.17,6.12.33,9.25.49-.96-1.34-1.9-2.45-2.61-3.69-.54-.93-1.06-2.01-1.13-3.06-.15-2.31,0-4.63-.01-6.95,0-1.1-.02-2.14,1.52-2.37-1.59-.92-3.54-1-4.45-.22Z"/>
  <path class="cls-1" d="m10.31,5.7c-.02,1.31-.57,1.89-1.79,1.88-1.09,0-1.72-.61-1.71-1.64,0-1.13.96-2.27,1.87-2.23,1.03.04,1.65.79,1.63,1.99Zm-1.69,1c.27-.46.55-.74.55-1.01,0-.24-.32-.48-.5-.73-.24.32-.53.62-.68.98-.04.11.3.38.63.76Z"/>
  <path class="cls-1" d="m13.55,1.43c.01,1.01-.62,1.74-1.37,1.68-.8-.07-1.19-.57-1.21-1.35-.03-1.07.61-1.84,1.5-1.76.92.09.96.87,1.09,1.42Z"/>
</svg>