<svg width="21" height="13" viewBox="0 0 21 13" fill="none" xmlns="http://www.w3.org/2000/svg">
<path d="M13.1985 1.36903L8.034 1.38679L8.19049 10.8417L13.355 10.8239L13.1985 1.36903Z" fill="#FF5F00"/>
<path d="M8.37391 6.13332C8.34195 4.21026 9.20342 2.50155 10.5527 1.3932C9.53425 0.59398 8.25739 0.11338 6.87325 0.118121C3.59413 0.129351 0.985921 2.83071 1.04122 6.15843C1.09652 9.48615 3.79421 12.1693 7.07333 12.1581C8.45747 12.1534 9.71822 11.6641 10.71 10.858C9.3243 9.77572 8.40587 8.05637 8.37391 6.13332Z" fill="#EB001B"/>
<path d="M20.3478 6.05229C20.4031 9.38001 17.7949 12.0814 14.5158 12.0926C13.1316 12.0973 11.8547 11.6167 10.8363 10.8175C12.2021 9.70912 13.0471 8.00046 13.0151 6.0774C12.9831 4.15435 12.065 2.45173 10.679 1.35275C11.6708 0.546643 12.9315 0.0573517 14.3157 0.0526111C17.5948 0.0413805 20.2928 2.74129 20.3478 6.05229Z" fill="#F79E1B"/>
</svg>
