<?xml version="1.0" encoding="UTF-8"?>
<svg id="Layer_1" data-name="Layer 1" xmlns="http://www.w3.org/2000/svg" viewBox="0 0 545.42 465.85">
  <defs>
    <style>
      .cls-1 {
        stroke-width: 0px;
      }
    </style>
  </defs>
  <path class="cls-1" d="M335.65,245.35c2.41-4.19,4.45-7.56,6.32-11.02,3.25-6.02,8.66-8.32,15.03-8.2,6.28.12,9.9,4.55,12.12,9.75,5.52,12.92,3.16,25.31-3.4,37.2-2.12,3.84-4.28,7.65-6.58,11.38-1.75,2.84-1.49,5.48-.15,8.4,1.55,3.37,2.83,6.87,4,10.39.31.93.1,2.34-.41,3.2-7.37,12.33-16.72,22.78-29.19,30.18-9.76,5.8-20.52,8.74-31.63,10.31-4.27.61-8.79.65-13.02-.07-2.34-.4-5.22-2.43-6.31-4.53-5.2-10-9.74-20.34-14.78-30.42-3.22-6.45-7.03-12.6-10.35-19-2.87-5.52-4.93-11.51-8.26-16.7-3.02-4.7-.71-7.64,1.65-11.12,5.54-8.17,13.64-13.19,21.84-18.13,11.1-6.69,22.31-13.12,35.3-15.53,6.94-1.29,13.87-2.35,20.7.37.86.34,2.21,1.36,2.13,1.9-.69,4.8,3.31,7.31,4.99,11.63ZM300.36,305.91c-2.77,7.07-5.21,13.89,2.51,19.33.6.42.55,1.77.81,2.69-12.67-7.28-8.21-17.16-4.31-27.13-12.31.87-24.28,2.78-36.06-3.52,2.7,5.65,5.07,10.63,7.45,15.61,4.44,9.28,8.88,18.57,13.34,27.84,1.51,3.14,4.27,4.19,7.55,4.34,13.29.6,25.82-2.98,37.38-8.78,12.95-6.5,23.04-16.7,30.19-29.46.84-1.5,1-3.81.57-5.51-.71-2.83-2.09-5.5-3.31-8.18-1.4-3.06-1.79-5.96.11-9.05,2.59-4.19,5.04-8.48,7.35-12.84,5.92-11.14,8.15-22.7,2.83-34.68-1.85-4.16-4.75-7.94-9.94-8.02-5.32-.08-9.87,1.75-12.61,6.8-1.93,3.56-4.05,7.02-6,10.58-1.58,2.88-2.43,3.03-4.34.35-1.59-2.24-3.01-4.61-4.26-6.54-3,3.09-5.58,6.25-8.64,8.82-15.82,13.29-35.08,18.94-54.53,23.98-4.93,1.28-10.14,1.44-15.64,2.17,3.2,5.99,6.27,11.78,9.41,17.53.34.62,1.08,1.06,1.71,1.48,10.76,7.18,22.62,6.03,34.88,4.26-.69-1.06-1.8-1.59-2.61-2.42-3.9-4.05-7.79-8.2-8.33-14.15-.58-6.32,3.27-9.04,9.09-6.67,5.39,2.19,8.13,6.48,9.32,12.58,1.37-2.94,2.21-5.46,3.63-7.62,1.65-2.52,3.49-5.08,5.8-6.95,2.93-2.37,6.31-1.25,7.77,2.24.65,1.56,1.01,3.4.95,5.09-.2,5.61-3.13,9.91-7.06,13.65-.73.69-1.49,1.35-2.24,2.03.22.36.45.71.67,1.07,4.79-2.53,9.75-4.79,14.33-7.65,6.73-4.21,13.1-8.97,16.18-16.74,1.55-3.9,2.25-7.85-.32-11.77-1.25-1.91-2.31-4.01-3.02-6.17-.47-1.44-.68-3.37-.09-4.66,1.53-3.37,3.46-6.59,5.44-9.74,2.07-3.29,5.08-5.2,9.1-4.74,4.44.51,6.36,3.72,7.77,7.53,1.88,5.1,1.31,10.36.06,15.25-1.78,6.95-4.54,13.66-7.08,20.41-.82,2.19-2.42,1.71-3.38.01-1.64-2.87-3.04-5.86-4.24-8.21-2.52,3.85-4.6,8.36-7.85,11.73-8.86,9.19-19.52,15.4-32.34,17.61-5.23.9-6.3,3.06-5.08,8.28.17.74.47,1.46.74,2.18,2,5.24,5.86,8.58,10.88,10.83,3,1.35,3.31,2.16,2.44,4.46-7.88-4.4-15.81-8.99-16.97-19.53ZM249.44,271.74c2.94,0,5.35.26,7.69-.04,18.5-2.38,35.66-8.94,51.98-17.65,6.94-3.71,13.4-8.45,17.56-15.5,2.09-3.54,1.65-4.43-2.34-5.41-6.88-1.69-13.54.03-20.12,1.65-14.31,3.54-26.26,11.89-38.63,19.39-5.76,3.49-10.17,8.29-14.04,13.67-.79,1.09-1.3,2.38-2.1,3.89ZM354.03,275.73c.32.04.65.09.97.13,2.01-6.06,4.5-12.02,5.88-18.23,1.1-4.91,1.81-10.11-.39-15.16-2.48-5.69-7.97-6.61-11.79-1.66-1.73,2.24-3.04,4.79-4.58,7.18-1.49,2.3-1.35,4.5-.15,6.94,2.95,5.96,5.71,12.02,8.57,18.04.45.94.99,1.84,1.49,2.76ZM303.35,298.53c8.4-4.08,15.24-8.75,16.59-18.11.27-1.89-1.36-4.06-2.11-6.1-1.83.89-4.32,1.29-5.38,2.74-4.55,6.22-6.74,13.53-9.09,21.47ZM300.29,297.44c.43-3.16.82-5.71,1.12-8.27.61-5.2-2.17-10.06-7.13-11.93-1.47-.55-3.97-.86-4.76-.06-1.05,1.07-1.55,3.52-1.12,5.04,1.82,6.43,6.21,10.99,11.9,15.22Z"/>
  <path class="cls-1" d="M289.97,130.04c-5,.85-9.32,2.96-12.68,6.41-.91.94-.14,3.52-.14,5.9-.35-.16-1.44-.32-2.03-.95-1.78-1.93-1.53-5.11.79-7,2.49-2.03,5.31-3.66,7.8-6.19-4.96,1.1-9.97,2.04-14.86,3.4-1.8.5-3.5,1.82-4.94,3.1-3.66,3.26-3.68,4.77-.67,9.53-1.17-.31-2.84-.25-3.4-1.01-.86-1.16-1.56-3.03-1.26-4.36,1.08-4.76,4.49-8.07,8.92-9.3,6.06-1.68,12.39-2.36,18.61-3.44,1.06-.18,2.14-.2,4.01-.36-1.39-1.23-2.39-1.87-3.05-2.76-1.22-1.65-2.88-3.35-3.17-5.21-.27-1.75.49-4.35,1.76-5.42,1.02-.85,3.6-.28,5.3.26,1.23.39,2.13,1.78,2.93,2.5,1.5-2.75,2.77-5.74,4.62-8.32,2-2.78,4.55-2.23,5.34,1.13.55,2.36.37,4.89.53,7.58.61-.56,1.42-1.28,2.2-2.03,8.2-7.92,16.39-15.86,24.61-23.77,1.18-1.14,2.67-1.97,3.77-3.17,5.07-5.52,9.3-4.27,14.95-.03.86.65,1.59,1.47,2.69,2.5,1.57-2.21,2.98-4.39,4.62-6.38.77-.93,2-1.47,3.02-2.19.71,1.02,1.76,1.95,2.08,3.09,2.43,8.5,3.37,17.22,2.64,26-.22,2.67-1.44,5.64-3.12,7.74-5.95,7.44-12.51,14.4-18.44,21.86-10.85,13.63-23.95,25-36.46,36.97-9.19,8.79-17.65,18.44-27.42,26.51-9.71,8.03-23.83,10.29-33.01-.4-3.96-4.6-3.97-9.8-2.99-15.19,1.14-6.22,4.44-11.37,8.67-15.95,11.9-12.9,23.81-25.78,35.7-38.68.71-.77,1.36-1.59,2.04-2.38ZM315.05,127.03c-6.25-1.26-11.73-.12-17.11,1.93-1.82.69-4.17.86-5.37,2.12-10.82,11.36-21.59,22.76-32.04,34.46-4.71,5.27-9.09,10.95-12.81,16.95-2.44,3.94-3.4,8.92-1.85,13.62,3.63,11.06,19.38,14.32,27.25,5.79,5.38-5.84,3.54-15.38-3.51-18.22-4.1-1.65-4.27-2.44-1.21-5.86,8.49-9.47,16.93-19,25.53-28.38,6.8-7.42,13.81-14.66,21.13-22.41ZM276.39,202.56c1.03-.93,1.43-1.27,1.81-1.64,14.61-14.05,29.2-28.11,43.83-42.14,7.3-7,6.92-21.72-.75-28.47-2.04-1.8-3.63-2.49-5.93.04-10.46,11.52-21.15,22.83-31.69,34.27-4.86,5.28-9.59,10.68-14.43,16.08,8.13,3.59,11.61,8.98,7.17,21.86ZM359.78,83.43c-11.53,16.49-26.6,28.68-40.01,42.77,9.04,5.52,9.6,14.64,10.66,24.19,2.55-2.91,4.69-5.35,6.82-7.8,7.1-8.19,14.31-16.29,21.2-24.65,1.95-2.37,3.85-5.44,4.15-8.36.9-8.6-.28-17.14-2.81-26.14ZM297.16,126.01c6.42-1.48,12.61-2.43,19.04-1.22.8.15,1.99-.65,2.69-1.33,4.52-4.31,9.03-8.65,13.42-13.09,5.7-5.77,11.31-11.63,16.9-17.51.58-.61,1.17-1.82.95-2.47-1.41-4.17-8.83-6.2-12.14-3.36-2.89,2.49-5.7,5.08-8.45,7.73-10.82,10.39-21.61,20.83-32.41,31.25ZM295.66,123.72c5.35-4.75,7.57-11.99,5.09-15.9-3.69,4.53-4.77,9.72-5.09,15.9ZM291.82,124.32c1.63-4.6,1.09-7.59-1.59-9.42-.86-.59-2.15-.54-3.25-.79-.2,1.29-1,2.96-.47,3.81,1.38,2.23,3.34,4.1,5.31,6.4Z"/>
  <path class="cls-1" d="M174.2,366.69c-8.37-.66-17.04-.06-24.73-4.11-4.5-2.37-8.73-5.43-12.6-8.74-4.09-3.51-6.16-8.38-5.32-13.86,1.48-9.72,2.69-19.55,5.13-29.04,3.04-11.83,6.81-23.53,11.07-34.98,2.33-6.28,6.05-12.11,9.63-17.83,3.71-5.94,8-11.51,12.05-17.24,5.04-7.13,5.96-15.64,7.85-23.8.84-3.61,1.24-7.33,1.67-11.03.39-3.32.31-6.72.85-10.01,1.37-8.21,9.51-14.72,18.2-11.73,3.49,1.2,6.96,2.5,10.28,4.09,1.14.55,2.05,1.97,2.65,3.2,1.86,3.81-.35,12.22-3.16,15.4-1.37,1.55-2.07,4.15-2.15,6.31-.42,10.17-.65,20.35-.64,30.53,0,2.19,1,4.5,1.96,6.56,4.44,9.44,5.29,19.55,4.27,29.57-1.03,10.07-3.38,20.03-5.57,29.95-2.41,10.88-5.13,21.7-8.04,32.46-1.36,5.05-3.5,9.89-5.26,14.83-2.5,7.01-8.43,8.63-14.85,9.46-1.08.14-2.19.02-3.29.02ZM152.84,269.82c-.8,1.75-1.43,2.91-1.87,4.14-7.13,19.78-13.21,39.81-16.62,60.65-1.57,9.59,1.15,16.52,9.04,21.73,2,1.32,4.01,2.69,6.18,3.7,9.24,4.31,19.15,4.43,29.01,3.98,5.2-.24,9.76-2.41,11.66-8.03,1.57-4.66,3.61-9.18,4.88-13.91,3.04-11.29,5.76-22.66,8.57-34.01,1.25-5.06,2.41-10.14,3.43-14.44-4.69-1.82-8.74-3.4-12.07-4.69-.71,3.01-.94,6.97-2.57,10.25-3.03,6.1-3.38,11.39,1.83,16.4,1.32,1.27,1.72,2.9-.06,4.57-.95-1.44-1.61-2.8-2.59-3.87-4.27-4.66-5.31-10.03-2.32-15.45,2.72-4.93,3.61-9.85,2.81-14.68-3.16,2.71-6.47,5.71-9.94,8.51-4.41,3.55-8.43,7.36-10.26,12.93-1.36,4.17-.47,5.97,3.4,7.89,1.52.75,2.8,1.96,4.81,3.4-4.11.63-9.6-2.51-10.64-5.6-.49-1.47-.85-3.43-.27-4.73,1.63-3.65,3.32-7.44,5.83-10.47,2.61-3.16,6.26-5.45,9.38-8.2,1.72-1.52,3.29-3.2,5.53-5.41-6.23,0-11.36.21-16.48-.05-6.06-.32-11.73-1.88-15.6-7.1-1.68-2.26-3.17-4.66-5.07-7.47ZM197.07,276.41c3.72-2.82,7.18-5.41,12.19-2.15-.47-4.62-.46-8.73-1.39-12.62-1.22-5.06-3.95-9.83-4.69-14.92-1.79-12.26-1.82-24.63.83-36.82.52-2.41.21-3.43-2.22-3.85-3.55-.6-7.08-1.32-10.6-2.07-3.05-.65-6.09-1.4-9.34-2.16-.7,4.85-1.24,9.18-1.97,13.48-1.88,11.14-3.95,22.14-11.4,31.36-4.46,5.53-8.23,11.61-12.38,17.39-1.54,2.15-1.32,4.03-.12,6.34,3.76,7.2,9.31,11.48,17.62,11.62,4.53.08,9.07.01,12.26.01-1.9-2.3-4.29-5.12-6.59-8.02-1.86-2.34-1.97-4.89-.19-7.28,1.84-2.47,4.34-2.71,7.06-1.48,4.96,2.24,8.89,5.52,10.93,11.17ZM181.89,199.53c2.9.64,5.85,1.33,8.81,1.94,2.99.61,6.01,1.07,9,1.69,8.3,1.73,8.24,1.74,9.46-6.74.43-2.99-.49-5.26-3.08-6.62-2.11-1.1-4.41-1.84-6.65-2.66-10.94-3.98-17.67,4.26-17.55,12.39ZM194.43,276.66c-.22-.52-.4-1.76-1.11-2.43-2.43-2.27-4.97-4.45-7.62-6.45-1.47-1.11-3.28-1.41-4.63.34-1.38,1.79-.84,3.63.61,4.98,2.54,2.37,5.16,4.69,7.98,6.7,2.43,1.74,4.63.4,4.77-3.14ZM193.37,283.07c5.42,3.28,10.4,1.02,12.78-3,.66-1.11.29-2.82.4-4.26-1.42,0-3.22-.56-4.2.1-3.04,2.04-5.77,4.54-8.98,7.15ZM198.68,288.14c1.03.45,2.46,1.2,3.96,1.71,3.68,1.25,5.25.19,5.63-3.67.14-1.47.22-2.96.28-3.77-3.06,1.78-6.41,3.73-9.86,5.74Z"/>
  <path class="cls-1" d="M433.18,77.13c.91-.51,1.71-1.1,2.6-1.44,3.7-1.45,6.69.7,6.57,4.64-.23,7.47-3.92,13-9.71,17.35-2.09,1.57-3.78,1.37-5.06-1.06-2.86-5.42-5.81-10.8-4.77-17.28.44-2.72.82-5.72,4.06-6.44,3.24-.72,4.87,1.77,6.32,4.24Z"/>
  <path class="cls-1" d="M126.86,129.68c.21-.43.34-.61.4-.81.72-2.6,1.63-5.47,4.67-5.64,3.4-.19,5.49,2.28,6.8,5.27,2.01,4.58,1.05,9.27.23,13.88-1.19,6.67-1.41,6.76-7.23,3.49-3.03-1.71-5.99-3.58-8.79-5.64-1.26-.93-2.3-2.37-3-3.79-1.88-3.79.32-7.05,4.47-6.87.76.03,1.52.07,2.46.11Z"/>
  <path class="cls-1" d="M107.72,389c-.08.83-.07,1.94-.3,3-.83,3.73-2.62,4.5-5.83,2.52-2.88-1.78-5.85-3.44-8.5-5.52-1.46-1.15-2.7-2.9-3.36-4.64-1.28-3.36.67-5.65,4.27-5.84,1-.06,2.32-.82,2.86-1.66,1.89-2.96,3.63-3.35,6.35-1.07,2.46,2.06,4.53,8,4.51,13.22Z"/>
  <path class="cls-1" d="M405.7,180.25c-1.72-4.91-3.43-9.82-5.26-15.04-1.4,2.13-2.58,3.93-4.09,6.22-2.19-3.38,1.82-4.96,1.5-7.58-5.12.47-10.2.94-15.27,1.41-.07-.57-.13-1.14-.2-1.71,4.77-.72,9.55-1.45,14.32-2.17.1-.25.2-.49.3-.74-2.25-1.29-4.5-2.58-6.72-3.86q1.47-1.65,7.88,1.58c-.03-4.75-3.44-9.2-1.54-14.07.32-.06.63-.13.95-.19,1.05,4.72,2.1,9.45,3.18,14.34,2.63-1.32,2.01-5.76,6.44-5.76-1.49,2.84-2.62,5.01-4.13,7.89,4.32-1.04,7.95-1.92,11.6-2.8.75,2.18.32,2.66-3.34,3.44-2.12.45-4.23.94-6.5,1.44,3.14,2.25,6.09,4.38,9.05,6.5-.32.5-.64,1.01-.96,1.51-3.09-1.85-6.18-3.7-9.69-5.81.87,5.58,4.23,10.12,4.3,15.24-.61.05-1.22.1-1.83.15Z"/>
  <path class="cls-1" d="M238.58,394.28c.17-3.13.34-6.25.56-10.4-2.87,2.76-5.21,5.01-8.18,7.87-1.08-.23-1.67-1.6-.19-3.35,1.32-1.56,3.08-2.75,4.67-4.08.88-.74,1.8-1.42,2.44-2.8-3.02.16-6.04.31-9.06.47-.05-.42-.1-.84-.15-1.26,3.33-1.86,7.16-1.25,11.03-1.53-1.12-4.05-6.21-5.66-6.59-10.03.29-.25.58-.49.86-.74,2.17,2.38,4.34,4.75,6.64,7.28,1.3-3.06-.07-6.67,3.78-9.2-.55,4.61-1,8.39-1.57,13.13,3.34-3.12,5.95-5.56,8.57-7.99.4.36.8.72,1.19,1.09-1,1.22-1.93,2.52-3.03,3.65-1.21,1.24-2.58,2.33-3.87,3.49.08.3.16.59.23.89,1.74.17,3.47.31,5.21.51,1.68.2,3.7.14,2.89,2.85-3.24-.43-6.31-.84-9.39-1.24-.18.27-.37.54-.55.81,1.71,2.01,3.52,3.94,5.08,6.06.57.77.57,1.97.83,2.98-.83-.47-1.83-.78-2.45-1.44-1.93-2.06-3.71-4.26-5.82-6.71-.52,3.46-1.01,6.68-1.5,9.91-.55-.07-1.1-.13-1.64-.2Z"/>
  <path class="cls-1" d="M503.58,343.34c3.39-2.69,6.77-5.37,10.91-8.66-2.96-.29-5.17-.51-7.46-.74q-.12-.95,8.84-1.73c-1.21-1.7-2.42-3.22-3.41-4.87-.41-.69-.36-1.67-.52-2.51.78.42,1.72.68,2.32,1.29.91.91,1.58,2.06,2.87,3.81.27-2.24.35-3.78.68-5.27.16-.75.7-1.48,1.25-2.04.17-.17,1.28.14,1.37.42.24.73.3,1.6.16,2.36-.24,1.34-.67,2.64-.42,4.35,1.16-.92,2.2-2.08,3.51-2.66.82-.37,2.04.13,3.07.24-.56.65-1.05,1.4-1.71,1.93-1.32,1.06-2.73,2.01-4.71,3.44,5.53.79,10.27,1.47,15.48,2.21-2.15,3.41-4.59,1.3-6.57,1.39-2.23.11-4.51-.57-7.27-.97,2.21,3.29,4.14,6.17,6.08,9.06-5.21-.15-5.1-5.66-8.74-7.58-.66,3.27-1.31,6.49-1.96,9.7-.54-.09-1.09-.17-1.63-.26.35-3.19.7-6.37,1.09-9.87-4.6,2.08-7.63,6.55-12.39,8.05-.28-.36-.55-.72-.83-1.09Z"/>
  <path class="cls-1" d="M31.26,153.99l-4.18,12.57c.22.14.45.27.67.41,1.37-.82,2.66-1.81,4.12-2.4,1.18-.47,2.55-.46,3.84-.66.11.4.21.8.32,1.2-2.02,1.09-4.04,2.19-6.06,3.28-.01.33-.03.66-.04,1,2.89.69,5.8,1.34,8.67,2.11.71.19,1.31.78,1.96,1.18-.7.34-1.42,1.01-2.08.95-2.57-.24-5.12-.71-8.38-1.2,1.55,2.17,2.82,3.95,4.11,5.75-1.77,1.77-2.19,1.67-4.34-1.73-1.09-1.73-2-3.56-3.71-5.37-.45,2.71-.83,5.42-1.39,8.11-.18.84-.73,1.67-1.33,2.31-.16.17-1.56-.33-1.59-.61-.08-.72.35-1.48.48-2.24.23-1.37.39-2.75.68-4.78-2.42,1.84-4.29,3.27-6.16,4.7-.23-.26-.47-.53-.7-.79,1.22-3.86,5.47-5.08,8.1-8.63-3.08-.8-5.94-1.5-8.76-2.32-.72-.21-1.31-.84-1.96-1.27.79-.35,1.66-1.12,2.35-.98,2.86.58,5.67,1.43,8.67,2.22-.26-3.85-3.89-6.99-2.48-10.95.32-.09.64-.18.97-.26.81,2.16,1.63,4.32,2.56,6.81,2.21-2.92,1.86-7.19,4.52-9.44.39.35.77.7,1.16,1.05Z"/>
  <path class="cls-1" d="M17.74,350.94l-4.18,12.57c.22.14.45.27.67.41,1.37-.82,2.66-1.81,4.12-2.4,1.18-.47,2.55-.46,3.84-.66.11.4.21.8.32,1.2-2.02,1.09-4.04,2.19-6.06,3.28-.01.33-.03.66-.04,1,2.89.69,5.8,1.34,8.67,2.11.71.19,1.31.78,1.96,1.18-.7.34-1.42,1.01-2.08.95-2.57-.24-5.12-.71-8.38-1.2,1.55,2.17,2.82,3.95,4.11,5.75-1.77,1.77-2.19,1.67-4.34-1.73-1.09-1.73-2-3.56-3.71-5.37-.45,2.71-.83,5.42-1.39,8.11-.18.84-.73,1.67-1.33,2.31-.16.17-1.56-.33-1.59-.61-.08-.72.35-1.48.48-2.24.23-1.37.39-2.75.68-4.78-2.42,1.84-4.29,3.27-6.16,4.7-.23-.26-.47-.53-.7-.79,1.22-3.86,5.47-5.08,8.1-8.63-3.08-.8-5.94-1.5-8.76-2.32-.72-.21-1.31-.84-1.96-1.27.79-.35,1.66-1.12,2.35-.98,2.86.58,5.67,1.43,8.67,2.22-.26-3.85-3.89-6.99-2.48-10.95.32-.09.64-.18.97-.26.81,2.16,1.63,4.32,2.56,6.81,2.21-2.92,1.86-7.19,4.52-9.44.39.35.77.7,1.16,1.05Z"/>
  <path class="cls-1" d="M25.47,449.36c-1.92-3.64-.73-7.5-.41-11.54-4.13,1.07-6.89,5.47-11.44,5.14-.16-.3-.32-.59-.47-.89,3.05-1.89,6.1-3.79,9.46-5.87-2.67-1.18-5.03-2.23-7.4-3.28.12-.46.23-.91.35-1.37,2.67.64,5.35,1.28,8.47,2.02-1.19-2.92-2.17-5.35-3.16-7.77.45-.22.89-.44,1.34-.65,1.22,2.03,2.45,4.05,4.02,6.66.49-1.86.69-3.29,1.26-4.56.38-.85,1.28-1.46,1.95-2.18.12.9.42,1.82.32,2.7-.16,1.38-.58,2.72-1.05,4.75,2.22-1.58,3.85-2.84,5.58-3.94,2.02-1.28,3.22-.67,3.5,1.34-2.62,1.45-4.99,2.76-8.2,4.54,3.05.9,5.28,1.33,7.31,2.22,1.59.7,4.97-.06,3.81,3.7-3.79-1.16-7.48-2.3-11.16-3.43-.16.21-.33.43-.49.64,1.89,3.39,3.77,6.77,5.66,10.16-.37.24-.74.47-1.11.71-3.43-1.56-3.62-5.92-6.85-9.03v10.1c-.42-.06-.84-.11-1.27-.17Z"/>
  <path class="cls-1" d="M279.55,22.84c2.45,1.89,4.69,3.55,6.83,5.32.59.49.87,1.34,1.29,2.02-.95-.04-2.14.27-2.8-.19-2.39-1.64-4.61-3.53-7.54-4.88,1.05,2.38,2.11,4.77,3.15,7.13q-2.48.99-5.24-5.86c-2.09,2.76-4.09,5.4-6.09,8.05-.31-.19-.62-.39-.94-.58-.13-3.55,3.79-5.33,4.37-8.85-1.89.57-3.68,1.1-5.69,1.71q.42-2.01,7.44-5c-1.78-1.89-3.6-3.59-5.1-5.53-.54-.7-.34-1.99-.47-3.01.68.45,1.44.82,2.03,1.37.95.88,1.79,1.87,3.03,3.2.26-2.42.47-4.37.69-6.32.44,0,.89,0,1.33,0,.18,2.25.36,4.5.53,6.74.18.1.36.19.53.29,1-2.03,1.76-4.24,3.06-6.05.97-1.35,2.61-2.25,4.03-3.23.2-.14.98.31,1.28.67.16.2-.03,1.06-.22,1.12-4.27,1.46-3.77,6.1-6.25,8.72.16.27.32.53.48.8,1.94-.71,3.94-1.28,5.79-2.17,1.93-.93,3.72-2.17,5.59-3.28.94,2.95-3.24,5.9-11.11,7.8Z"/>
  <path class="cls-1" d="M22.61,70.78c-1.24-2.02-2.4-3.91-3.56-5.81.26-.26.52-.51.78-.77,2.76.18,2.61,3.97,5.02,4.73.33-2.48.6-5.11,1.07-7.71.1-.58.87-1.03,1.34-1.54.35.68,1.03,1.38.99,2.03-.16,2.55-.56,5.08-.86,7.61l.82.26c1.96-2.48,3.93-4.97,5.89-7.45l1.04.51c1.15,3.59-3.95,4.71-3.91,8.19,1.32,0,2.86-.23,4.26.09.79.18,1.37,1.28,2.04,1.96-.76.19-1.52.53-2.29.56-1.92.08-3.84.03-6.26.7,2.72,2.42,5.44,4.84,8.28,7.37q-1.67.92-8.71-4.51c0,2.31.06,4.44-.03,6.56-.03.77-.43,1.52-.66,2.28-.48-.72-1.31-1.4-1.39-2.16-.2-1.91-.07-3.86-.07-5.8-.29-.09-.58-.17-.88-.26-1.28,1.92-2.49,3.89-3.87,5.74-.42.56-1.28.8-1.94,1.18.03-.78-.2-1.72.15-2.31,1.64-2.81,3.44-5.52,5.49-8.75h-8.61c-.08-.42-.15-.84-.23-1.25,1.96-.47,3.92-.94,6.08-1.46Z"/>
  <path class="cls-1" d="M497.25,135.23c2.15-1.93,3.5-3.4,5.12-4.46.65-.43,1.9.05,2.87.12-.47.59-.88,1.24-1.42,1.75-1.49,1.4-3.04,2.74-5.17,4.64,3.56.18,6.33.23,9.09.48,2.15.2,2.23.47,1.72,2.74-3.77-.37-7.51-.74-12.17-1.21,2.49,3.89,4.49,7.02,6.58,10.28q-1.75.33-6.15-4.49c-.25,1.89-.49,3.64-.72,5.39-.47,0-.93,0-1.4,0-.19-2.89-.38-5.77-.63-9.61-2.95,3.05-5.51,5.73-8.13,8.35-.49.49-1.23.74-1.85,1.1-.03-.83-.42-2.02-.02-2.43,2.3-2.33,4.79-4.47,7.89-7.29-2.96-.41-4.8-.66-6.64-.91,0-.45,0-.9,0-1.35,2.13-.23,4.26-.47,7.19-.79-1.56-1.89-2.85-3.38-4.04-4.94-.43-.57-.64-1.31-.95-1.98.88.13,2.02-.04,2.57.45,1.29,1.15,2.29,2.61,3.72,4.32,0-1.85-.18-3.3.06-4.69.19-1.11.89-2.13,1.37-3.19l1.08.45v7.27Z"/>
  <path class="cls-1" d="M426.59,404.55c0-2.03-.2-3.05.06-3.94.2-.67.99-1.17,1.52-1.75.44.74,1.24,1.48,1.24,2.22,0,1.55-.41,3.09-.77,5.4,3.35-2.54,6.03-4.57,8.7-6.6.25.3.51.6.76.9-.48,3.4-4.43,3.91-6.25,6.76,2.55.34,4.86.61,7.17.96,1.69.25,2.95.86,2.05,2.97-2.89-.49-5.63-.96-8.37-1.43-.15.21-.3.43-.45.64,1.61,1.63,3.29,3.2,4.8,4.91.54.61.68,1.57,1,2.37-.86-.15-1.95-.02-2.55-.5-2.26-1.81-4.36-3.81-6.67-5.87.13,2.35.31,4.8.35,7.26,0,.6-.48,1.21-.74,1.81-.49-.5-1.37-.97-1.4-1.5-.15-2.38-.07-4.78-.07-7.44-3.51.86-5.18,5.09-9.4,3.64,2.26-1.71,4.52-3.43,7.42-5.62-3.37-.16-6.01-.29-8.64-.42v-1.46h8.82c-.57-3.67-5-4.93-4.41-8.37.3-.16.59-.32.89-.48,1.42,1.59,2.84,3.18,4.94,5.54Z"/>
  <path class="cls-1" d="M381.01,14.91c2.6.59,5.22,1.11,7.79,1.8.7.19,1.26.88,1.88,1.33-.71.32-1.46.98-2.12.9-2.25-.26-4.47-.78-7.36-1.32.63,1.25,1.18,2.09,1.48,3.01.21.64.07,1.39.08,2.09-.71-.3-1.52-.47-2.09-.93-.56-.45-.89-1.2-1.62-2.25-.7,2.81-1.3,5.21-2.11,8.44-2.64-3.68-.02-6.59-.34-10.2-1.88,2.29-3.39,4.12-5.04,6.14-1.54-2.22-.42-3.68.94-4.94,1.27-1.17,2.72-2.14,4.1-3.2-.19-.36-.38-.71-.58-1.07-1.82-.46-3.65-.91-5.61-1.41,1.29-3.16,3.7-1.03,5.65-1.16-.63-2.34-1.4-4.48-1.75-6.68-.39-2.45.85-3.1,2.65-2.39.11,2.33.21,4.34.32,6.7,1.8-2.87,3.21-5.26,4.82-7.51.2-.28,1.43.18,1.95.25-1.37,2.73-2.58,5.14-3.79,7.56l.86.51c1.81-1.35,3.55-2.81,5.46-3.98.64-.39,1.73-.06,2.62-.05-.48.69-.84,1.52-1.47,2.04-2.17,1.8-4.44,3.5-6.67,5.23-.02.36-.03.72-.05,1.07Z"/>
  <path class="cls-1" d="M436.17,252.99c-1.6,0-3.2.1-4.79-.05-.69-.07-1.33-.66-2-1.01.71-.43,1.42-1.23,2.13-1.23,2.06-.02,4.12.27,6.68.48-1.32-2.26-2.58-4.13-3.5-6.15-.34-.75.12-1.87.21-2.82.6.64,1.31,1.22,1.79,1.94,1.03,1.53,1.94,3.14,2.98,4.85,1.74-1.42.68-5.88,5.1-4.08-.78,1.36-1.52,2.63-2.25,3.9.18.17.36.34.54.52,1.87-1.37,3.68-2.83,5.63-4.08.85-.54,1.97-.64,2.97-.94-.53.96-.86,2.16-1.64,2.82-2.07,1.76-4.34,3.28-7.44,5.57,3.45.49,6.03.86,8.61,1.22.79.11,1.59.21,2.38.31-.78.72-1.56,2.03-2.35,2.04-2.36.02-4.73-.47-7.69-.83.76,1.21,1.42,2.01,1.81,2.93.32.77.33,1.67.47,2.52-.84-.4-1.91-.6-2.46-1.24-.96-1.11-1.61-2.5-2.72-4.32-.74,2.63-1.32,4.69-1.9,6.76-.31-.04-.61-.08-.92-.13v-5.64c-2.83,1.54-5.34,2.91-7.86,4.27-.27-.44-.55-.88-.82-1.31,2.43-1.76,4.87-3.51,7.3-5.27-.09-.34-.19-.68-.28-1.01Z"/>
  <path class="cls-1" d="M419.07,320.42c1.87.16,4.57-.37,5.39.64,1,1.23,1.08,4.04.37,5.64-1.4,3.14-3.4,6.1-5.58,8.79-2.03,2.49-4.1,2.2-5.26-.72-1.28-3.19-2.42-6.61-2.65-9.99-.13-1.92,1.38-4.25,2.81-5.78.44-.47,3.07,1.13,4.7,1.79.07-.12.14-.25.21-.37Z"/>
  <path class="cls-1" d="M85.83,15.72c-1.91,2.1-3.82,4.2-5.74,6.3-.39-.3-.78-.6-1.17-.9,1.17-3.46,4.66-5.53,6.32-9.06-1.51-.21-2.98-.31-4.38-.66-.44-.11-.7-.9-1.04-1.38.51-.25,1.04-.73,1.54-.71,1.28.04,2.56.31,3.83.49.61-3.49-5.45-4.36-2.43-9.14,1.51,2.13,2.78,3.93,4.27,6.02.72-2.43,1.36-4.55,1.99-6.67.45.09.91.18,1.36.27-.17,1.88-.33,3.77-.51,5.71,2.83-.98,3.92-4.69,7.14-4.6.28.34.56.68.84,1.02-2.66,2-5.32,3.99-8.47,6.35,4.73,2.85,10.14.82,12.53,6.27-4.1-1.08-7.55-1.98-11.1-2.92.02,2.73,3.45,4.25,1,7.41-1.05-1.62-1.92-2.96-3.19-4.92-.16,1.93-.06,3.25-.46,4.4-.24.68-1.26,1.1-1.93,1.63-.29-.79-.8-1.58-.81-2.38,0-.77.51-1.55.79-2.33-.13-.07-.27-.14-.4-.21Z"/>
  <path class="cls-1" d="M208.29,95.62c1.7,1.16,3.39,2.32,5.5,3.77-.68-2.85-1.26-5.27-1.84-7.69.47-.18.93-.36,1.4-.54.79,1.82,1.57,3.64,2.5,5.79,1.14-2,2.19-3.83,3.52-6.17,1.99,3.77-1.17,5.62-1.57,8.43,2.88-.63,5.68-1.23,8.51-1.85,0,1.24-.64,1.61-7.22,4.35,2.88,1.33,5.59,2.58,8.31,3.82-.13.41-.25.83-.38,1.24-3.23.81-5.69-2.17-9.03-2.61.73,2.19,1.51,4.28,2.09,6.41.21.77-.06,1.68-.11,2.52-.72-.64-1.74-1.14-2.1-1.95-.93-2.08-1.57-4.28-2.57-7.13-1.51,3.28-2.72,5.91-3.94,8.55-2.25-3.53,1.04-5.84,1.21-8.81-2.73-.57-5.52,2.94-9.11-.04,3.15-.95,5.63-1.69,9.29-2.79-2.31-1.72-3.92-2.92-5.53-4.13.36-.39.71-.78,1.07-1.18Z"/>
  <path class="cls-1" d="M504.89,24.65c1.41-1.3,2.37-2.73,3.69-3.27,1.68-.69,3.95-1.34,5.41-.72,1.22.52,2.26,2.9,2.29,4.48.14,7.02-.85,13.81-6.25,19.06-3.39,3.3-5.58,3.31-8.38-.51-3.69-5.03-6.1-10.62-5.51-17.09.1-1.08.32-2.18.73-3.18,1.23-3.05,4.34-3.48,6.46-.93.48.58.89,1.22,1.56,2.15ZM500.3,22.44c-.71,1.21-1.39,1.88-1.52,2.64-1.12,6.84,1.26,12.66,5.46,17.89,1.16,1.44,2.31,1.15,3.6-.04,5.22-4.82,6.14-11.09,6.02-17.68-.02-.92-.57-2.38-1.22-2.61-.77-.27-2.17.25-2.85.9-1.59,1.51-2.92,3.31-4.58,5.26-1.49-1.93-2.99-3.86-4.92-6.36Z"/>
  <path class="cls-1" d="M513.74,431.45c.98-.92,1.59-1.92,2.44-2.2,1.65-.55,3.76-1.42,5.07-.83,1.33.6,2.69,2.82,2.69,4.34.03,7.08-2.56,13.44-6.6,19.16-1.91,2.71-3.46,2.8-5.45.13-2.97-4-5.54-8.29-8.22-12.5-.46-.72-.75-1.61-.86-2.46-.38-2.98-.57-6.2,2.12-8.13,2.67-1.9,5.14.06,7.44,1.51.45.28.86.62,1.35.97ZM513.57,451.44c.48-.1.96-.2,1.44-.3,3.56-5.11,6.01-10.72,6.54-17,.1-1.21-1.28-2.54-1.98-3.82-1.16,1.23-2.4,2.39-3.43,3.71-.49.63-.58,1.56-.85,2.36-.71-.62-1.61-1.11-2.09-1.88-1.43-2.27-5.53-4.76-6.72-3.68-2.11,1.91-2.08,4.65-.91,6.9,2.45,4.68,5.31,9.15,8,13.7Z"/>
  <path class="cls-1" d="M313.54,456.56h-10.84c.65.88,1.18,1.47,1.56,2.15.45.8.76,1.67,1.13,2.51-.9-.21-1.81-.36-2.68-.64-.37-.12-.64-.51-1.13-.93-1.08,2.14.27,5.64-3.8,6.05.54-2.75,1.02-5.25,1.7-8.71-3.1,3.44-5.55,6.14-8,8.85-.43-.34-.87-.67-1.3-1.01,1.97-2.62,3.94-5.23,6.06-8.04-2.23-.36-4.02-.64-5.8-.93.04-.43.07-.86.11-1.28,1.98-.14,3.96-.28,6.65-.47-1.45-1.92-2.73-3.54-3.91-5.22-.44-.63-.79-1.4-.89-2.14-.05-.33.83-1.14.91-1.09.69.39,1.42.85,1.89,1.47.97,1.27,1.79,2.65,3.28,3.77-.09-1.13-.29-2.26-.23-3.38.04-.81.43-1.61.66-2.41.52.72,1.16,1.38,1.52,2.17.25.56.13,1.29.24,2.84,1.36-1.94,2.2-3.38,3.3-4.59.47-.52,1.47-.56,2.23-.82-.1.73.03,1.6-.33,2.18-1.42,2.3-2.99,4.51-4.69,7.02,4.31,1.21,8.84-1.02,12.37,2.66Z"/>
  <path class="cls-1" d="M344.1,380.73c.37-.41.84-1.34,1.57-1.64,1.62-.67,3.72-1.83,4.97-1.29,1.61.7,3.48,2.76,3.68,4.42.83,6.87-1.05,13.26-5.15,18.85-.5.68-2.96.96-3.44.44-3.61-3.91-7.4-7.78-10.25-12.23-2.41-3.76-.78-7.96,2.82-8.93,1.62-.44,3.52.2,5.8.39ZM346.61,400.57c3.98-5.43,5.24-10.39,5.5-15.53.08-1.65-1.3-3.38-2.01-5.07-1.45.63-2.89,1.27-4.34,1.9.27.23.53.46.8.69.08,1.23.16,2.45.24,3.68-1.17-.69-2.36-1.36-3.5-2.09-.43-.28-.73-.96-1.15-1.03-1.32-.19-3.33-.73-3.87-.1-.88,1.02-1.59,3.35-1.01,4.28,2.73,4.39,5.92,8.49,9.35,13.27Z"/>
  <path class="cls-1" d="M537.56,224.73c6.29-2.62,8.75,1.43,7.57,6.34-1.26,5.28-4.31,9.5-8.31,13.07-1.95,1.74-3.66,1.65-5.07-.76-3.17-5.42-6.22-10.94-5.45-17.49.24-2.06,1.16-4.73,2.69-5.78,2.19-1.51,4.55.26,6.33,2.03.77.76,1.42,1.64,2.23,2.59ZM537.44,230.49c-.38-.01-.75-.03-1.13-.04-.24-.99-.35-2.05-.77-2.96-.66-1.44-1.33-2.96-2.38-4.1-.71-.77-2.25-1.49-3.09-1.21-.72.23-1.23,1.88-1.37,2.96-.84,6.73,2.25,12.19,5.73,17.84,4.3-3.86,7.67-7.93,8.4-13.58.12-.9-.8-1.94-1.24-2.92-1.16.57-2.44.99-3.42,1.78-.51.41-.51,1.46-.73,2.23Z"/>
  <path class="cls-1" d="M171.36,439.27c1.65-.61,3.27-1.68,4.9-1.7,2.34-.04,4.54.87,5.01,3.74,1.24,7.68-1.65,13.9-6.88,19.25-1.35,1.38-3.09,1.49-4.34-.03-4.02-4.86-7.41-10.18-7.47-16.67-.02-2.18,1.35-5.07,3.05-6.3,1.03-.74,3.92,1.1,5.73,1.7ZM172.25,459.01c.43-.31.75-.45.96-.69,3.82-4.32,6.51-9.16,5.86-15.13-.13-1.16-1.43-2.57-2.56-3.14-1.44-.72-2.17.4-2.61,1.94-.41,1.41-1.49,2.63-2.65,4.58-.97-3.54-1.58-6.39-4.89-7.1-3.01,4.78-.03,14.55,5.89,19.53Z"/>
  <path class="cls-1" d="M96.83,260.82c-.46-1.41-.92-2.82-1.38-4.23-1.8.94-3.81,1.99-5.82,3.03-.23-.38-.47-.76-.7-1.14,1.86-1.52,3.72-3.05,5.89-4.83-2.15-.51-4.02-.84-5.8-1.44-.83-.28-1.49-1.09-2.22-1.67.97-.14,1.95-.46,2.9-.37,1.48.13,2.94.53,4.91.91-1.1-2.57-1.99-4.63-2.88-6.69.4-.24.79-.49,1.19-.73,1.13,1.56,2.26,3.12,3.58,4.96.51-1.85.96-3.5,1.42-5.15.36.06.73.12,1.09.18v6.62c2.34-1.71,4.19-3.05,6.03-4.4.35.34.69.67,1.04,1.01-1.5,1.68-3,3.36-4.75,5.32,2.75.59,5.46,1.17,8.93,1.91-3.44,2.81-6.32.34-9.06.79.73,1.6,1.4,3.09,2.07,4.57-.33.25-.65.5-.98.75-1.15-1.19-2.3-2.38-3.72-3.85-.15,1.5-.28,2.78-.42,4.07-.44.13-.88.26-1.32.38Z"/>
  <path class="cls-1" d="M26.9,264.49c.88-1.68,3.15-2.94,6.19-2.02,2.91.89,3.55,3.45,4.2,6.09,1.05,4.27.44,8.26-1.52,12.07-1.79,3.47-4.58,4.31-7.48,1.68-3.11-2.81-5.77-6.18-8.32-9.53-1.66-2.17-2.55-5.24-.28-7.16,1.41-1.19,4.21-.74,7.21-1.13ZM30.57,268.97c-.22.41-.43.82-.65,1.22-2.66-1.3-5.32-2.6-8.65-4.22-.1,1.6-.52,2.79-.18,3.72,1.7,4.7,4.94,8.22,9.01,11.02,1.5,1.03,2.64.52,3.45-1.04,2.08-4.01,2.4-8.21.85-12.39-.41-1.11-1.8-2.28-2.95-2.57-.81-.2-1.98,1.06-3.06,1.71.98,1.14,1.58,1.85,2.18,2.55Z"/>
  <path class="cls-1" d="M167.47,24.74c2-1.3,3.69-3.2,4.78-2.91,1.48.39,3.16,2.28,3.63,3.86,1.59,5.36,1.3,10.83-.6,16.1-1.16,3.23-2.47,3.69-5,1.49-3.2-2.78-6.36-5.71-8.99-9.01-1.99-2.49-3.07-5.91-.94-8.86,2.22-3.07,5.3-1.3,7.12-.68ZM172.7,24.23c-.37-.02-.74-.04-1.11-.07-.52,1.55-1.03,3.1-1.69,5.07-1.06-.79-1.73-1.6-2.57-1.86-1.58-.48-3.25-.63-4.88-.92-.04,1.63-.58,3.45-.04,4.85,1.86,4.78,6.1,7.43,10.4,10.99,1.61-6.54,2.76-12.33-.1-18.07Z"/>
</svg>