<svg width="21" height="7" viewBox="0 0 21 7" fill="none" xmlns="http://www.w3.org/2000/svg">
<path d="M19.5925 0.0876999H18.3352C17.955 0.0876999 17.6626 0.204659 17.4872 0.584776L15.0895 6.05261H16.7855C16.7855 6.05261 17.0779 5.32162 17.1363 5.14618C17.3118 5.14618 18.9784 5.14618 19.2124 5.14618C19.2708 5.35086 19.417 6.02337 19.417 6.02337H20.9375L19.5925 0.0876999ZM17.6042 3.91811C17.7504 3.56723 18.2474 2.25144 18.2474 2.25144C18.2474 2.28068 18.3936 1.90057 18.4521 1.69589L18.5691 2.2222C18.5691 2.2222 18.8907 3.65495 18.9492 3.94735H17.6042V3.91811Z" fill="#3362AB"/>
<path d="M15.2065 4.09357C15.2065 5.32164 14.0954 6.14035 12.3702 6.14035C11.6393 6.14035 10.9375 5.99415 10.5574 5.81871L10.7913 4.47368L10.996 4.5614C11.5223 4.79532 11.8732 4.88304 12.5164 4.88304C12.9843 4.88304 13.4814 4.7076 13.4814 4.29825C13.4814 4.03509 13.2767 3.85965 12.6334 3.56725C12.0194 3.27485 11.2007 2.80702 11.2007 1.95906C11.2007 0.789474 12.341 0 13.9492 0C14.5632 0 15.0895 0.116959 15.4112 0.263158L15.1773 1.54971L15.0603 1.43275C14.7679 1.31579 14.3878 1.19883 13.8322 1.19883C13.2182 1.22807 12.9258 1.49123 12.9258 1.72515C12.9258 1.9883 13.2767 2.19298 13.8322 2.45614C14.7679 2.89474 15.2065 3.39181 15.2065 4.09357Z" fill="#3362AB"/>
<path d="M0.9375 0.146218L0.96674 0.0292587H3.48136C3.83224 0.0292587 4.09539 0.146218 4.18311 0.526335L4.73867 3.15791C4.18311 1.7544 2.89656 0.614054 0.9375 0.146218Z" fill="#F9B50B"/>
<path d="M8.27668 0.0877191L5.73282 6.02339H4.00767L2.54568 1.05263C3.59832 1.72515 4.47551 2.77778 4.79715 3.50877L4.97259 4.12281L6.55153 0.0584793H8.27668V0.0877191Z" fill="#3362AB"/>
<path d="M8.9492 0.0584793H10.5574L9.53399 6.02339H7.92581L8.9492 0.0584793Z" fill="#3362AB"/>
</svg>
