<?xml version="1.0" encoding="UTF-8"?>
<svg id="Layer_1" data-name="Layer 1" xmlns="http://www.w3.org/2000/svg" viewBox="0 0 21 22.5">
  <defs>
    <style>
      .cls-1 {
        fill: #fff;
      }

      .cls-1, .cls-2, .cls-3, .cls-4 {
        stroke-width: 0px;
      }

      .cls-2 {
        fill: #ef4267;
      }

      .cls-3 {
        fill: #ee2658;
      }

      .cls-4 {
        fill: #f4f2f3;
      }
    </style>
  </defs>
  <path class="cls-1" d="M.02,11.16C.02,7.83.04,4.5,0,1.16,0,.34.08,0,1.08,0c6.25.06,12.5.05,18.76.01.83,0,1.17.07,1.16,1.08-.06,6.74-.04,13.49-.01,20.23,0,.83-.07,1.17-1.08,1.16-6.25-.06-12.5-.08-18.76,0C-.07,22.52,0,22.02,0,21.16c.04-3.33.02-6.66.02-10ZM18.53,10.81c0-2.11-.04-4.22.02-6.32.03-1.16-.42-1.56-1.56-1.55-4.21.04-8.42.04-12.63,0-1.05,0-1.43.41-1.42,1.44.03,4.21.04,8.43,0,12.64-.01,1.16.42,1.56,1.56,1.55,4.21-.04,8.42-.04,12.63,0,1.05,0,1.44-.41,1.42-1.44-.04-2.11-.01-4.21-.01-6.32Z"/>
  <path class="cls-3" d="M18.53,10.81c0,2.11-.03,4.21.01,6.32.02,1.03-.38,1.45-1.42,1.44-4.21-.03-8.42-.04-12.63,0-1.14.01-1.58-.39-1.56-1.55.04-4.21.03-8.43,0-12.64,0-1.03.37-1.45,1.42-1.44,4.21.03,8.42.04,12.63,0,1.14-.01,1.6.39,1.56,1.55-.06,2.11-.02,4.21-.02,6.32ZM7.49,10.86c0,1.3,0,2.6,0,3.9,0,.63.14,1.13.9,1.18.81.06,1.31-.29,1.2-1.11-.21-1.61.56-1.72,1.94-1.72,1.88,0,2.29-1.63,2.39-3.12.1-1.57-.12-3.18-1.97-3.75-2.91-.89-4.47.33-4.47,3.39,0,.41,0,.81,0,1.22Z"/>
  <path class="cls-4" d="M7.49,10.86c0-.41,0-.81,0-1.22,0-3.07,1.56-4.28,4.47-3.39,1.85.56,2.07,2.18,1.97,3.75-.1,1.49-.52,3.12-2.39,3.12-1.38,0-2.15.11-1.94,1.72.11.82-.39,1.17-1.2,1.11-.76-.06-.9-.56-.9-1.18,0-1.3,0-2.6,0-3.9ZM9.57,9.48c.07.82-.03,1.83,1.01,1.98,1.13.16,1.26-.83,1.26-1.65,0-.78.12-1.8-.98-1.94-1.16-.15-1.2.82-1.3,1.61Z"/>
  <path class="cls-2" d="M9.57,9.48c.1-.8.14-1.77,1.3-1.61,1.1.14.98,1.16.98,1.94,0,.82-.14,1.81-1.26,1.65-1.04-.14-.94-1.16-1.01-1.98Z"/>
</svg>